<?xml version="1.0" encoding="utf-8" standalone="no"?>
<!DOCTYPE svg PUBLIC "-//W3C//DTD SVG 1.1//EN"
  "http://www.w3.org/Graphics/SVG/1.1/DTD/svg11.dtd">
<svg xmlns:xlink="http://www.w3.org/1999/xlink" width="725.123077pt" height="439.838281pt" viewBox="0 0 725.123077 439.838281" xmlns="http://www.w3.org/2000/svg" version="1.1">
 <metadata>
  <rdf:RDF xmlns:dc="http://purl.org/dc/elements/1.1/" xmlns:cc="http://creativecommons.org/ns#" xmlns:rdf="http://www.w3.org/1999/02/22-rdf-syntax-ns#">
   <cc:Work>
    <dc:type rdf:resource="http://purl.org/dc/dcmitype/StillImage"/>
    <dc:date>2026-03-26T12:33:40.776223</dc:date>
    <dc:format>image/svg+xml</dc:format>
    <dc:creator>
     <cc:Agent>
      <dc:title>Matplotlib v3.10.8, https://matplotlib.org/</dc:title>
     </cc:Agent>
    </dc:creator>
   </cc:Work>
  </rdf:RDF>
 </metadata>
 <defs>
  <style type="text/css">*{stroke-linejoin: round; stroke-linecap: butt}</style>
 </defs>
 <g id="figure_1">
  <g id="patch_1">
   <path d="M 0 439.838281 
L 725.123077 439.838281 
L 725.123077 0 
L 0 0 
z
" style="fill: #ffffff"/>
  </g>
  <g id="axes_1">
   <g id="patch_2">
    <path d="M 33.523077 351.036743 
L 149.344615 351.036743 
Q 151.976923 351.036743 151.976923 348.404435 
L 151.976923 116.761358 
Q 151.976923 114.12905 149.344615 114.12905 
L 33.523077 114.12905 
Q 30.890769 114.12905 30.890769 116.761358 
L 30.890769 348.404435 
Q 30.890769 351.036743 33.523077 351.036743 
z
" clip-path="url(#pee2b83da7b)" style="fill: #dce8f0; stroke: #2980b9; stroke-width: 1.5; stroke-linejoin: miter"/>
   </g>
   <g id="patch_3">
    <path d="M 533.661538 322.081358 
L 665.276923 322.081358 
Q 667.909231 322.081358 667.909231 319.44905 
L 667.909231 145.716743 
Q 667.909231 143.084435 665.276923 143.084435 
L 533.661538 143.084435 
Q 531.029231 143.084435 531.029231 145.716743 
L 531.029231 319.44905 
Q 531.029231 322.081358 533.661538 322.081358 
z
" clip-path="url(#pee2b83da7b)" style="fill: #fef9e7; stroke: #e67e22; stroke-width: 1.5; stroke-linejoin: miter"/>
   </g>
   <g id="patch_4">
    <path d="M 533.661538 384.730281 
L 665.276923 384.730281 
Q 667.909231 384.730281 667.909231 382.097974 
L 667.909231 287.334897 
Q 667.909231 284.702589 665.276923 284.702589 
L 533.661538 284.702589 
Q 531.029231 284.702589 531.029231 287.334897 
L 531.029231 382.097974 
Q 531.029231 384.730281 533.661538 384.730281 
z
" clip-path="url(#pee2b83da7b)" style="fill: #fdf2f8; stroke: #8e44ad; stroke-width: 1.5; stroke-linejoin: miter"/>
   </g>
   <g id="patch_5">
    <path d="M 151.976923 317.869666 
L 333.606154 317.869666 
Q 336.238462 317.869666 336.238462 315.237358 
L 336.238462 149.928435 
Q 336.238462 147.296127 333.606154 147.296127 
L 151.976923 147.296127 
Q 149.344615 147.296127 149.344615 149.928435 
L 149.344615 315.237358 
Q 149.344615 317.869666 151.976923 317.869666 
z
" clip-path="url(#pee2b83da7b)" style="fill: #f9f9ff; stroke-dasharray: 4.44,1.92; stroke-dashoffset: 0; stroke: #aaaaaa; stroke-width: 1.2; stroke-linejoin: miter"/>
   </g>
   <g id="line2d_1">
    <path d="M 149.344615 163.089974 
L 341.503077 163.089974 
L 341.503077 163.089974 
L 533.661538 163.089974 
" clip-path="url(#pee2b83da7b)" style="fill: none; stroke: #e67428; stroke-width: 1.8; stroke-linecap: round"/>
   </g>
   <g id="line2d_2">
    <path d="M 149.344615 209.418589 
L 341.503077 209.418589 
L 341.503077 209.418589 
L 533.661538 209.418589 
" clip-path="url(#pee2b83da7b)" style="fill: none; stroke: #e67428; stroke-width: 1.8; stroke-linecap: round"/>
   </g>
   <g id="line2d_3">
    <path d="M 149.344615 302.07582 
L 341.503077 302.07582 
L 341.503077 302.07582 
L 533.661538 302.07582 
" clip-path="url(#pee2b83da7b)" style="fill: none; stroke: #1a1a1a; stroke-width: 1.8; stroke-linecap: round"/>
   </g>
   <g id="line2d_4">
    <path d="M 149.344615 255.747204 
L 349.4 255.747204 
L 349.4 318.922589 
L 533.661538 318.922589 
" clip-path="url(#pee2b83da7b)" style="fill: none; stroke: #8e44ad; stroke-width: 1.8; stroke-linecap: round"/>
   </g>
   <g id="line2d_5">
    <path d="M 349.4 302.07582 
L 349.4 350.510281 
L 533.661538 350.510281 
" clip-path="url(#pee2b83da7b)" style="fill: none; stroke: #1a1a1a; stroke-width: 1.8; stroke-linecap: round"/>
   </g>
   <g id="text_1">
    <!-- Arduino Nano -->
    <g style="fill: #111111" transform="translate(56.805643 207.269165) scale(0.09 -0.09)">
     <defs>
      <path id="DejaVuSans-Bold-41" d="M 3419 850 
L 1538 850 
L 1241 0 
L 31 0 
L 1759 4666 
L 3194 4666 
L 4922 0 
L 3713 0 
L 3419 850 
z
M 1838 1716 
L 3116 1716 
L 2478 3572 
L 1838 1716 
z
" transform="scale(0.015625)"/>
      <path id="DejaVuSans-Bold-72" d="M 3138 2547 
Q 2991 2616 2845 2648 
Q 2700 2681 2553 2681 
Q 2122 2681 1889 2404 
Q 1656 2128 1656 1613 
L 1656 0 
L 538 0 
L 538 3500 
L 1656 3500 
L 1656 2925 
Q 1872 3269 2151 3426 
Q 2431 3584 2822 3584 
Q 2878 3584 2943 3579 
Q 3009 3575 3134 3559 
L 3138 2547 
z
" transform="scale(0.015625)"/>
      <path id="DejaVuSans-Bold-64" d="M 2919 2988 
L 2919 4863 
L 4044 4863 
L 4044 0 
L 2919 0 
L 2919 506 
Q 2688 197 2409 53 
Q 2131 -91 1766 -91 
Q 1119 -91 703 423 
Q 288 938 288 1747 
Q 288 2556 703 3070 
Q 1119 3584 1766 3584 
Q 2128 3584 2408 3439 
Q 2688 3294 2919 2988 
z
M 2181 722 
Q 2541 722 2730 984 
Q 2919 1247 2919 1747 
Q 2919 2247 2730 2509 
Q 2541 2772 2181 2772 
Q 1825 2772 1636 2509 
Q 1447 2247 1447 1747 
Q 1447 1247 1636 984 
Q 1825 722 2181 722 
z
" transform="scale(0.015625)"/>
      <path id="DejaVuSans-Bold-75" d="M 500 1363 
L 500 3500 
L 1625 3500 
L 1625 3150 
Q 1625 2866 1622 2436 
Q 1619 2006 1619 1863 
Q 1619 1441 1641 1255 
Q 1663 1069 1716 984 
Q 1784 875 1895 815 
Q 2006 756 2150 756 
Q 2500 756 2700 1025 
Q 2900 1294 2900 1772 
L 2900 3500 
L 4019 3500 
L 4019 0 
L 2900 0 
L 2900 506 
Q 2647 200 2364 54 
Q 2081 -91 1741 -91 
Q 1134 -91 817 281 
Q 500 653 500 1363 
z
" transform="scale(0.015625)"/>
      <path id="DejaVuSans-Bold-69" d="M 538 3500 
L 1656 3500 
L 1656 0 
L 538 0 
L 538 3500 
z
M 538 4863 
L 1656 4863 
L 1656 3950 
L 538 3950 
L 538 4863 
z
" transform="scale(0.015625)"/>
      <path id="DejaVuSans-Bold-6e" d="M 4056 2131 
L 4056 0 
L 2931 0 
L 2931 347 
L 2931 1631 
Q 2931 2084 2911 2256 
Q 2891 2428 2841 2509 
Q 2775 2619 2662 2680 
Q 2550 2741 2406 2741 
Q 2056 2741 1856 2470 
Q 1656 2200 1656 1722 
L 1656 0 
L 538 0 
L 538 3500 
L 1656 3500 
L 1656 2988 
Q 1909 3294 2193 3439 
Q 2478 3584 2822 3584 
Q 3428 3584 3742 3212 
Q 4056 2841 4056 2131 
z
" transform="scale(0.015625)"/>
      <path id="DejaVuSans-Bold-6f" d="M 2203 2784 
Q 1831 2784 1636 2517 
Q 1441 2250 1441 1747 
Q 1441 1244 1636 976 
Q 1831 709 2203 709 
Q 2569 709 2762 976 
Q 2956 1244 2956 1747 
Q 2956 2250 2762 2517 
Q 2569 2784 2203 2784 
z
M 2203 3584 
Q 3106 3584 3614 3096 
Q 4122 2609 4122 1747 
Q 4122 884 3614 396 
Q 3106 -91 2203 -91 
Q 1297 -91 786 396 
Q 275 884 275 1747 
Q 275 2609 786 3096 
Q 1297 3584 2203 3584 
z
" transform="scale(0.015625)"/>
      <path id="DejaVuSans-Bold-20" transform="scale(0.015625)"/>
      <path id="DejaVuSans-Bold-4e" d="M 588 4666 
L 1931 4666 
L 3628 1466 
L 3628 4666 
L 4769 4666 
L 4769 0 
L 3425 0 
L 1728 3200 
L 1728 0 
L 588 0 
L 588 4666 
z
" transform="scale(0.015625)"/>
      <path id="DejaVuSans-Bold-61" d="M 2106 1575 
Q 1756 1575 1579 1456 
Q 1403 1338 1403 1106 
Q 1403 894 1545 773 
Q 1688 653 1941 653 
Q 2256 653 2472 879 
Q 2688 1106 2688 1447 
L 2688 1575 
L 2106 1575 
z
M 3816 1997 
L 3816 0 
L 2688 0 
L 2688 519 
Q 2463 200 2181 54 
Q 1900 -91 1497 -91 
Q 953 -91 614 226 
Q 275 544 275 1050 
Q 275 1666 698 1953 
Q 1122 2241 2028 2241 
L 2688 2241 
L 2688 2328 
Q 2688 2594 2478 2717 
Q 2269 2841 1825 2841 
Q 1466 2841 1156 2769 
Q 847 2697 581 2553 
L 581 3406 
Q 941 3494 1303 3539 
Q 1666 3584 2028 3584 
Q 2975 3584 3395 3211 
Q 3816 2838 3816 1997 
z
" transform="scale(0.015625)"/>
     </defs>
     <use xlink:href="#DejaVuSans-Bold-41"/>
     <use xlink:href="#DejaVuSans-Bold-72" transform="translate(77.392578 0)"/>
     <use xlink:href="#DejaVuSans-Bold-64" transform="translate(126.708984 0)"/>
     <use xlink:href="#DejaVuSans-Bold-75" transform="translate(198.291016 0)"/>
     <use xlink:href="#DejaVuSans-Bold-69" transform="translate(269.482422 0)"/>
     <use xlink:href="#DejaVuSans-Bold-6e" transform="translate(303.759766 0)"/>
     <use xlink:href="#DejaVuSans-Bold-6f" transform="translate(374.951172 0)"/>
     <use xlink:href="#DejaVuSans-Bold-20" transform="translate(443.652344 0)"/>
     <use xlink:href="#DejaVuSans-Bold-4e" transform="translate(478.466797 0)"/>
     <use xlink:href="#DejaVuSans-Bold-61" transform="translate(562.158203 0)"/>
     <use xlink:href="#DejaVuSans-Bold-6e" transform="translate(629.638672 0)"/>
     <use xlink:href="#DejaVuSans-Bold-6f" transform="translate(700.830078 0)"/>
    </g>
   </g>
   <g id="text_2">
    <!-- (ATmega328P) -->
    <g style="fill: #444444" transform="translate(63.884823 285.613905) scale(0.075 -0.075)">
     <defs>
      <path id="DejaVuSans-28" d="M 1984 4856 
Q 1566 4138 1362 3434 
Q 1159 2731 1159 2009 
Q 1159 1288 1364 580 
Q 1569 -128 1984 -844 
L 1484 -844 
Q 1016 -109 783 600 
Q 550 1309 550 2009 
Q 550 2706 781 3412 
Q 1013 4119 1484 4856 
L 1984 4856 
z
" transform="scale(0.015625)"/>
      <path id="DejaVuSans-41" d="M 2188 4044 
L 1331 1722 
L 3047 1722 
L 2188 4044 
z
M 1831 4666 
L 2547 4666 
L 4325 0 
L 3669 0 
L 3244 1197 
L 1141 1197 
L 716 0 
L 50 0 
L 1831 4666 
z
" transform="scale(0.015625)"/>
      <path id="DejaVuSans-54" d="M -19 4666 
L 3928 4666 
L 3928 4134 
L 2272 4134 
L 2272 0 
L 1638 0 
L 1638 4134 
L -19 4134 
L -19 4666 
z
" transform="scale(0.015625)"/>
      <path id="DejaVuSans-6d" d="M 3328 2828 
Q 3544 3216 3844 3400 
Q 4144 3584 4550 3584 
Q 5097 3584 5394 3201 
Q 5691 2819 5691 2113 
L 5691 0 
L 5113 0 
L 5113 2094 
Q 5113 2597 4934 2840 
Q 4756 3084 4391 3084 
Q 3944 3084 3684 2787 
Q 3425 2491 3425 1978 
L 3425 0 
L 2847 0 
L 2847 2094 
Q 2847 2600 2669 2842 
Q 2491 3084 2119 3084 
Q 1678 3084 1418 2786 
Q 1159 2488 1159 1978 
L 1159 0 
L 581 0 
L 581 3500 
L 1159 3500 
L 1159 2956 
Q 1356 3278 1631 3431 
Q 1906 3584 2284 3584 
Q 2666 3584 2933 3390 
Q 3200 3197 3328 2828 
z
" transform="scale(0.015625)"/>
      <path id="DejaVuSans-65" d="M 3597 1894 
L 3597 1613 
L 953 1613 
Q 991 1019 1311 708 
Q 1631 397 2203 397 
Q 2534 397 2845 478 
Q 3156 559 3463 722 
L 3463 178 
Q 3153 47 2828 -22 
Q 2503 -91 2169 -91 
Q 1331 -91 842 396 
Q 353 884 353 1716 
Q 353 2575 817 3079 
Q 1281 3584 2069 3584 
Q 2775 3584 3186 3129 
Q 3597 2675 3597 1894 
z
M 3022 2063 
Q 3016 2534 2758 2815 
Q 2500 3097 2075 3097 
Q 1594 3097 1305 2825 
Q 1016 2553 972 2059 
L 3022 2063 
z
" transform="scale(0.015625)"/>
      <path id="DejaVuSans-67" d="M 2906 1791 
Q 2906 2416 2648 2759 
Q 2391 3103 1925 3103 
Q 1463 3103 1205 2759 
Q 947 2416 947 1791 
Q 947 1169 1205 825 
Q 1463 481 1925 481 
Q 2391 481 2648 825 
Q 2906 1169 2906 1791 
z
M 3481 434 
Q 3481 -459 3084 -895 
Q 2688 -1331 1869 -1331 
Q 1566 -1331 1297 -1286 
Q 1028 -1241 775 -1147 
L 775 -588 
Q 1028 -725 1275 -790 
Q 1522 -856 1778 -856 
Q 2344 -856 2625 -561 
Q 2906 -266 2906 331 
L 2906 616 
Q 2728 306 2450 153 
Q 2172 0 1784 0 
Q 1141 0 747 490 
Q 353 981 353 1791 
Q 353 2603 747 3093 
Q 1141 3584 1784 3584 
Q 2172 3584 2450 3431 
Q 2728 3278 2906 2969 
L 2906 3500 
L 3481 3500 
L 3481 434 
z
" transform="scale(0.015625)"/>
      <path id="DejaVuSans-61" d="M 2194 1759 
Q 1497 1759 1228 1600 
Q 959 1441 959 1056 
Q 959 750 1161 570 
Q 1363 391 1709 391 
Q 2188 391 2477 730 
Q 2766 1069 2766 1631 
L 2766 1759 
L 2194 1759 
z
M 3341 1997 
L 3341 0 
L 2766 0 
L 2766 531 
Q 2569 213 2275 61 
Q 1981 -91 1556 -91 
Q 1019 -91 701 211 
Q 384 513 384 1019 
Q 384 1609 779 1909 
Q 1175 2209 1959 2209 
L 2766 2209 
L 2766 2266 
Q 2766 2663 2505 2880 
Q 2244 3097 1772 3097 
Q 1472 3097 1187 3025 
Q 903 2953 641 2809 
L 641 3341 
Q 956 3463 1253 3523 
Q 1550 3584 1831 3584 
Q 2591 3584 2966 3190 
Q 3341 2797 3341 1997 
z
" transform="scale(0.015625)"/>
      <path id="DejaVuSans-33" d="M 2597 2516 
Q 3050 2419 3304 2112 
Q 3559 1806 3559 1356 
Q 3559 666 3084 287 
Q 2609 -91 1734 -91 
Q 1441 -91 1130 -33 
Q 819 25 488 141 
L 488 750 
Q 750 597 1062 519 
Q 1375 441 1716 441 
Q 2309 441 2620 675 
Q 2931 909 2931 1356 
Q 2931 1769 2642 2001 
Q 2353 2234 1838 2234 
L 1294 2234 
L 1294 2753 
L 1863 2753 
Q 2328 2753 2575 2939 
Q 2822 3125 2822 3475 
Q 2822 3834 2567 4026 
Q 2313 4219 1838 4219 
Q 1578 4219 1281 4162 
Q 984 4106 628 3988 
L 628 4550 
Q 988 4650 1302 4700 
Q 1616 4750 1894 4750 
Q 2613 4750 3031 4423 
Q 3450 4097 3450 3541 
Q 3450 3153 3228 2886 
Q 3006 2619 2597 2516 
z
" transform="scale(0.015625)"/>
      <path id="DejaVuSans-32" d="M 1228 531 
L 3431 531 
L 3431 0 
L 469 0 
L 469 531 
Q 828 903 1448 1529 
Q 2069 2156 2228 2338 
Q 2531 2678 2651 2914 
Q 2772 3150 2772 3378 
Q 2772 3750 2511 3984 
Q 2250 4219 1831 4219 
Q 1534 4219 1204 4116 
Q 875 4013 500 3803 
L 500 4441 
Q 881 4594 1212 4672 
Q 1544 4750 1819 4750 
Q 2544 4750 2975 4387 
Q 3406 4025 3406 3419 
Q 3406 3131 3298 2873 
Q 3191 2616 2906 2266 
Q 2828 2175 2409 1742 
Q 1991 1309 1228 531 
z
" transform="scale(0.015625)"/>
      <path id="DejaVuSans-38" d="M 2034 2216 
Q 1584 2216 1326 1975 
Q 1069 1734 1069 1313 
Q 1069 891 1326 650 
Q 1584 409 2034 409 
Q 2484 409 2743 651 
Q 3003 894 3003 1313 
Q 3003 1734 2745 1975 
Q 2488 2216 2034 2216 
z
M 1403 2484 
Q 997 2584 770 2862 
Q 544 3141 544 3541 
Q 544 4100 942 4425 
Q 1341 4750 2034 4750 
Q 2731 4750 3128 4425 
Q 3525 4100 3525 3541 
Q 3525 3141 3298 2862 
Q 3072 2584 2669 2484 
Q 3125 2378 3379 2068 
Q 3634 1759 3634 1313 
Q 3634 634 3220 271 
Q 2806 -91 2034 -91 
Q 1263 -91 848 271 
Q 434 634 434 1313 
Q 434 1759 690 2068 
Q 947 2378 1403 2484 
z
M 1172 3481 
Q 1172 3119 1398 2916 
Q 1625 2713 2034 2713 
Q 2441 2713 2670 2916 
Q 2900 3119 2900 3481 
Q 2900 3844 2670 4047 
Q 2441 4250 2034 4250 
Q 1625 4250 1398 4047 
Q 1172 3844 1172 3481 
z
" transform="scale(0.015625)"/>
      <path id="DejaVuSans-50" d="M 1259 4147 
L 1259 2394 
L 2053 2394 
Q 2494 2394 2734 2622 
Q 2975 2850 2975 3272 
Q 2975 3691 2734 3919 
Q 2494 4147 2053 4147 
L 1259 4147 
z
M 628 4666 
L 2053 4666 
Q 2838 4666 3239 4311 
Q 3641 3956 3641 3272 
Q 3641 2581 3239 2228 
Q 2838 1875 2053 1875 
L 1259 1875 
L 1259 0 
L 628 0 
L 628 4666 
z
" transform="scale(0.015625)"/>
      <path id="DejaVuSans-29" d="M 513 4856 
L 1013 4856 
Q 1481 4119 1714 3412 
Q 1947 2706 1947 2009 
Q 1947 1309 1714 600 
Q 1481 -109 1013 -844 
L 513 -844 
Q 928 -128 1133 580 
Q 1338 1288 1338 2009 
Q 1338 2731 1133 3434 
Q 928 4138 513 4856 
z
" transform="scale(0.015625)"/>
     </defs>
     <use xlink:href="#DejaVuSans-28"/>
     <use xlink:href="#DejaVuSans-41" transform="translate(39.013672 0)"/>
     <use xlink:href="#DejaVuSans-54" transform="translate(99.671875 0)"/>
     <use xlink:href="#DejaVuSans-6d" transform="translate(160.755859 0)"/>
     <use xlink:href="#DejaVuSans-65" transform="translate(258.167969 0)"/>
     <use xlink:href="#DejaVuSans-67" transform="translate(319.691406 0)"/>
     <use xlink:href="#DejaVuSans-61" transform="translate(383.167969 0)"/>
     <use xlink:href="#DejaVuSans-33" transform="translate(444.447266 0)"/>
     <use xlink:href="#DejaVuSans-32" transform="translate(508.070312 0)"/>
     <use xlink:href="#DejaVuSans-38" transform="translate(571.693359 0)"/>
     <use xlink:href="#DejaVuSans-50" transform="translate(635.316406 0)"/>
     <use xlink:href="#DejaVuSans-29" transform="translate(695.619141 0)"/>
    </g>
   </g>
   <g id="text_3">
    <!-- D10 -->
    <g style="fill: #222222" transform="translate(129.845846 165.297474) scale(0.08 -0.08)">
     <defs>
      <path id="DejaVuSans-44" d="M 1259 4147 
L 1259 519 
L 2022 519 
Q 2988 519 3436 956 
Q 3884 1394 3884 2338 
Q 3884 3275 3436 3711 
Q 2988 4147 2022 4147 
L 1259 4147 
z
M 628 4666 
L 1925 4666 
Q 3281 4666 3915 4102 
Q 4550 3538 4550 2338 
Q 4550 1131 3912 565 
Q 3275 0 1925 0 
L 628 0 
L 628 4666 
z
" transform="scale(0.015625)"/>
      <path id="DejaVuSans-31" d="M 794 531 
L 1825 531 
L 1825 4091 
L 703 3866 
L 703 4441 
L 1819 4666 
L 2450 4666 
L 2450 531 
L 3481 531 
L 3481 0 
L 794 0 
L 794 531 
z
" transform="scale(0.015625)"/>
      <path id="DejaVuSans-30" d="M 2034 4250 
Q 1547 4250 1301 3770 
Q 1056 3291 1056 2328 
Q 1056 1369 1301 889 
Q 1547 409 2034 409 
Q 2525 409 2770 889 
Q 3016 1369 3016 2328 
Q 3016 3291 2770 3770 
Q 2525 4250 2034 4250 
z
M 2034 4750 
Q 2819 4750 3233 4129 
Q 3647 3509 3647 2328 
Q 3647 1150 3233 529 
Q 2819 -91 2034 -91 
Q 1250 -91 836 529 
Q 422 1150 422 2328 
Q 422 3509 836 4129 
Q 1250 4750 2034 4750 
z
" transform="scale(0.015625)"/>
     </defs>
     <use xlink:href="#DejaVuSans-44"/>
     <use xlink:href="#DejaVuSans-31" transform="translate(77.001953 0)"/>
     <use xlink:href="#DejaVuSans-30" transform="translate(140.625 0)"/>
    </g>
   </g>
   <g id="text_4">
    <!-- D11 -->
    <g style="fill: #222222" transform="translate(129.845846 211.626089) scale(0.08 -0.08)">
     <use xlink:href="#DejaVuSans-44"/>
     <use xlink:href="#DejaVuSans-31" transform="translate(77.001953 0)"/>
     <use xlink:href="#DejaVuSans-31" transform="translate(140.625 0)"/>
    </g>
   </g>
   <g id="text_5">
    <!-- D12 -->
    <g style="fill: #222222" transform="translate(129.845846 257.954704) scale(0.08 -0.08)">
     <use xlink:href="#DejaVuSans-44"/>
     <use xlink:href="#DejaVuSans-31" transform="translate(77.001953 0)"/>
     <use xlink:href="#DejaVuSans-32" transform="translate(140.625 0)"/>
    </g>
   </g>
   <g id="text_6">
    <!-- GND -->
    <g style="fill: #222222" transform="translate(127.842096 304.28332) scale(0.08 -0.08)">
     <defs>
      <path id="DejaVuSans-47" d="M 3809 666 
L 3809 1919 
L 2778 1919 
L 2778 2438 
L 4434 2438 
L 4434 434 
Q 4069 175 3628 42 
Q 3188 -91 2688 -91 
Q 1594 -91 976 548 
Q 359 1188 359 2328 
Q 359 3472 976 4111 
Q 1594 4750 2688 4750 
Q 3144 4750 3555 4637 
Q 3966 4525 4313 4306 
L 4313 3634 
Q 3963 3931 3569 4081 
Q 3175 4231 2741 4231 
Q 1884 4231 1454 3753 
Q 1025 3275 1025 2328 
Q 1025 1384 1454 906 
Q 1884 428 2741 428 
Q 3075 428 3337 486 
Q 3600 544 3809 666 
z
" transform="scale(0.015625)"/>
      <path id="DejaVuSans-4e" d="M 628 4666 
L 1478 4666 
L 3547 763 
L 3547 4666 
L 4159 4666 
L 4159 0 
L 3309 0 
L 1241 3903 
L 1241 0 
L 628 0 
L 628 4666 
z
" transform="scale(0.015625)"/>
     </defs>
     <use xlink:href="#DejaVuSans-47"/>
     <use xlink:href="#DejaVuSans-4e" transform="translate(77.490234 0)"/>
     <use xlink:href="#DejaVuSans-44" transform="translate(152.294922 0)"/>
    </g>
   </g>
   <g id="text_7">
    <!-- SSR 4ch Omron -->
    <g style="fill: #111111" transform="translate(560.561106 209.179442) scale(0.09 -0.09)">
     <defs>
      <path id="DejaVuSans-Bold-53" d="M 3834 4519 
L 3834 3531 
Q 3450 3703 3084 3790 
Q 2719 3878 2394 3878 
Q 1963 3878 1756 3759 
Q 1550 3641 1550 3391 
Q 1550 3203 1689 3098 
Q 1828 2994 2194 2919 
L 2706 2816 
Q 3484 2659 3812 2340 
Q 4141 2022 4141 1434 
Q 4141 663 3683 286 
Q 3225 -91 2284 -91 
Q 1841 -91 1394 -6 
Q 947 78 500 244 
L 500 1259 
Q 947 1022 1364 901 
Q 1781 781 2169 781 
Q 2563 781 2772 912 
Q 2981 1044 2981 1288 
Q 2981 1506 2839 1625 
Q 2697 1744 2272 1838 
L 1806 1941 
Q 1106 2091 782 2419 
Q 459 2747 459 3303 
Q 459 4000 909 4375 
Q 1359 4750 2203 4750 
Q 2588 4750 2994 4692 
Q 3400 4634 3834 4519 
z
" transform="scale(0.015625)"/>
      <path id="DejaVuSans-Bold-52" d="M 2297 2597 
Q 2675 2597 2839 2737 
Q 3003 2878 3003 3200 
Q 3003 3519 2839 3656 
Q 2675 3794 2297 3794 
L 1791 3794 
L 1791 2597 
L 2297 2597 
z
M 1791 1766 
L 1791 0 
L 588 0 
L 588 4666 
L 2425 4666 
Q 3347 4666 3776 4356 
Q 4206 4047 4206 3378 
Q 4206 2916 3982 2619 
Q 3759 2322 3309 2181 
Q 3556 2125 3751 1926 
Q 3947 1728 4147 1325 
L 4800 0 
L 3519 0 
L 2950 1159 
Q 2778 1509 2601 1637 
Q 2425 1766 2131 1766 
L 1791 1766 
z
" transform="scale(0.015625)"/>
      <path id="DejaVuSans-Bold-34" d="M 2356 3675 
L 1038 1722 
L 2356 1722 
L 2356 3675 
z
M 2156 4666 
L 3494 4666 
L 3494 1722 
L 4159 1722 
L 4159 850 
L 3494 850 
L 3494 0 
L 2356 0 
L 2356 850 
L 288 850 
L 288 1881 
L 2156 4666 
z
" transform="scale(0.015625)"/>
      <path id="DejaVuSans-Bold-63" d="M 3366 3391 
L 3366 2478 
Q 3138 2634 2908 2709 
Q 2678 2784 2431 2784 
Q 1963 2784 1702 2511 
Q 1441 2238 1441 1747 
Q 1441 1256 1702 982 
Q 1963 709 2431 709 
Q 2694 709 2930 787 
Q 3166 866 3366 1019 
L 3366 103 
Q 3103 6 2833 -42 
Q 2563 -91 2291 -91 
Q 1344 -91 809 395 
Q 275 881 275 1747 
Q 275 2613 809 3098 
Q 1344 3584 2291 3584 
Q 2566 3584 2833 3536 
Q 3100 3488 3366 3391 
z
" transform="scale(0.015625)"/>
      <path id="DejaVuSans-Bold-68" d="M 4056 2131 
L 4056 0 
L 2931 0 
L 2931 347 
L 2931 1625 
Q 2931 2084 2911 2256 
Q 2891 2428 2841 2509 
Q 2775 2619 2662 2680 
Q 2550 2741 2406 2741 
Q 2056 2741 1856 2470 
Q 1656 2200 1656 1722 
L 1656 0 
L 538 0 
L 538 4863 
L 1656 4863 
L 1656 2988 
Q 1909 3294 2193 3439 
Q 2478 3584 2822 3584 
Q 3428 3584 3742 3212 
Q 4056 2841 4056 2131 
z
" transform="scale(0.015625)"/>
      <path id="DejaVuSans-Bold-4f" d="M 2719 3878 
Q 2169 3878 1866 3472 
Q 1563 3066 1563 2328 
Q 1563 1594 1866 1187 
Q 2169 781 2719 781 
Q 3272 781 3575 1187 
Q 3878 1594 3878 2328 
Q 3878 3066 3575 3472 
Q 3272 3878 2719 3878 
z
M 2719 4750 
Q 3844 4750 4481 4106 
Q 5119 3463 5119 2328 
Q 5119 1197 4481 553 
Q 3844 -91 2719 -91 
Q 1597 -91 958 553 
Q 319 1197 319 2328 
Q 319 3463 958 4106 
Q 1597 4750 2719 4750 
z
" transform="scale(0.015625)"/>
      <path id="DejaVuSans-Bold-6d" d="M 3781 2919 
Q 3994 3244 4286 3414 
Q 4578 3584 4928 3584 
Q 5531 3584 5847 3212 
Q 6163 2841 6163 2131 
L 6163 0 
L 5038 0 
L 5038 1825 
Q 5041 1866 5042 1909 
Q 5044 1953 5044 2034 
Q 5044 2406 4934 2573 
Q 4825 2741 4581 2741 
Q 4263 2741 4089 2478 
Q 3916 2216 3909 1719 
L 3909 0 
L 2784 0 
L 2784 1825 
Q 2784 2406 2684 2573 
Q 2584 2741 2328 2741 
Q 2006 2741 1831 2477 
Q 1656 2213 1656 1722 
L 1656 0 
L 531 0 
L 531 3500 
L 1656 3500 
L 1656 2988 
Q 1863 3284 2130 3434 
Q 2397 3584 2719 3584 
Q 3081 3584 3359 3409 
Q 3638 3234 3781 2919 
z
" transform="scale(0.015625)"/>
     </defs>
     <use xlink:href="#DejaVuSans-Bold-53"/>
     <use xlink:href="#DejaVuSans-Bold-53" transform="translate(67.521484 0)"/>
     <use xlink:href="#DejaVuSans-Bold-52" transform="translate(139.542969 0)"/>
     <use xlink:href="#DejaVuSans-Bold-20" transform="translate(216.544922 0)"/>
     <use xlink:href="#DejaVuSans-Bold-34" transform="translate(251.359375 0)"/>
     <use xlink:href="#DejaVuSans-Bold-63" transform="translate(320.939453 0)"/>
     <use xlink:href="#DejaVuSans-Bold-68" transform="translate(380.216797 0)"/>
     <use xlink:href="#DejaVuSans-Bold-20" transform="translate(451.408203 0)"/>
     <use xlink:href="#DejaVuSans-Bold-4f" transform="translate(486.222656 0)"/>
     <use xlink:href="#DejaVuSans-Bold-6d" transform="translate(571.232422 0)"/>
     <use xlink:href="#DejaVuSans-Bold-72" transform="translate(675.431641 0)"/>
     <use xlink:href="#DejaVuSans-Bold-6f" transform="translate(724.748047 0)"/>
     <use xlink:href="#DejaVuSans-Bold-6e" transform="translate(793.449219 0)"/>
    </g>
    <!-- G3MB-202P -->
    <g style="fill: #111111" transform="translate(570.177746 219.257473) scale(0.09 -0.09)">
     <defs>
      <path id="DejaVuSans-Bold-47" d="M 4781 347 
Q 4331 128 3847 18 
Q 3363 -91 2847 -91 
Q 1681 -91 1000 561 
Q 319 1213 319 2328 
Q 319 3456 1012 4103 
Q 1706 4750 2913 4750 
Q 3378 4750 3804 4662 
Q 4231 4575 4609 4403 
L 4609 3438 
Q 4219 3659 3833 3768 
Q 3447 3878 3059 3878 
Q 2341 3878 1952 3476 
Q 1563 3075 1563 2328 
Q 1563 1588 1938 1184 
Q 2313 781 3003 781 
Q 3191 781 3352 804 
Q 3513 828 3641 878 
L 3641 1784 
L 2906 1784 
L 2906 2591 
L 4781 2591 
L 4781 347 
z
" transform="scale(0.015625)"/>
      <path id="DejaVuSans-Bold-33" d="M 2981 2516 
Q 3453 2394 3698 2092 
Q 3944 1791 3944 1325 
Q 3944 631 3412 270 
Q 2881 -91 1863 -91 
Q 1503 -91 1142 -33 
Q 781 25 428 141 
L 428 1069 
Q 766 900 1098 814 
Q 1431 728 1753 728 
Q 2231 728 2486 893 
Q 2741 1059 2741 1369 
Q 2741 1688 2480 1852 
Q 2219 2016 1709 2016 
L 1228 2016 
L 1228 2791 
L 1734 2791 
Q 2188 2791 2409 2933 
Q 2631 3075 2631 3366 
Q 2631 3634 2415 3781 
Q 2200 3928 1806 3928 
Q 1516 3928 1219 3862 
Q 922 3797 628 3669 
L 628 4550 
Q 984 4650 1334 4700 
Q 1684 4750 2022 4750 
Q 2931 4750 3382 4451 
Q 3834 4153 3834 3553 
Q 3834 3144 3618 2883 
Q 3403 2622 2981 2516 
z
" transform="scale(0.015625)"/>
      <path id="DejaVuSans-Bold-4d" d="M 588 4666 
L 2119 4666 
L 3181 2169 
L 4250 4666 
L 5778 4666 
L 5778 0 
L 4641 0 
L 4641 3413 
L 3566 897 
L 2803 897 
L 1728 3413 
L 1728 0 
L 588 0 
L 588 4666 
z
" transform="scale(0.015625)"/>
      <path id="DejaVuSans-Bold-42" d="M 2456 2859 
Q 2741 2859 2887 2984 
Q 3034 3109 3034 3353 
Q 3034 3594 2887 3720 
Q 2741 3847 2456 3847 
L 1791 3847 
L 1791 2859 
L 2456 2859 
z
M 2497 819 
Q 2859 819 3042 972 
Q 3225 1125 3225 1434 
Q 3225 1738 3044 1889 
Q 2863 2041 2497 2041 
L 1791 2041 
L 1791 819 
L 2497 819 
z
M 3616 2497 
Q 4003 2384 4215 2081 
Q 4428 1778 4428 1338 
Q 4428 663 3972 331 
Q 3516 0 2584 0 
L 588 0 
L 588 4666 
L 2394 4666 
Q 3366 4666 3802 4372 
Q 4238 4078 4238 3431 
Q 4238 3091 4078 2852 
Q 3919 2613 3616 2497 
z
" transform="scale(0.015625)"/>
      <path id="DejaVuSans-Bold-2d" d="M 347 2297 
L 2309 2297 
L 2309 1388 
L 347 1388 
L 347 2297 
z
" transform="scale(0.015625)"/>
      <path id="DejaVuSans-Bold-32" d="M 1844 884 
L 3897 884 
L 3897 0 
L 506 0 
L 506 884 
L 2209 2388 
Q 2438 2594 2547 2791 
Q 2656 2988 2656 3200 
Q 2656 3528 2436 3728 
Q 2216 3928 1850 3928 
Q 1569 3928 1234 3808 
Q 900 3688 519 3450 
L 519 4475 
Q 925 4609 1322 4679 
Q 1719 4750 2100 4750 
Q 2938 4750 3402 4381 
Q 3866 4013 3866 3353 
Q 3866 2972 3669 2642 
Q 3472 2313 2841 1759 
L 1844 884 
z
" transform="scale(0.015625)"/>
      <path id="DejaVuSans-Bold-30" d="M 2944 2338 
Q 2944 3213 2780 3570 
Q 2616 3928 2228 3928 
Q 1841 3928 1675 3570 
Q 1509 3213 1509 2338 
Q 1509 1453 1675 1090 
Q 1841 728 2228 728 
Q 2613 728 2778 1090 
Q 2944 1453 2944 2338 
z
M 4147 2328 
Q 4147 1169 3647 539 
Q 3147 -91 2228 -91 
Q 1306 -91 806 539 
Q 306 1169 306 2328 
Q 306 3491 806 4120 
Q 1306 4750 2228 4750 
Q 3147 4750 3647 4120 
Q 4147 3491 4147 2328 
z
" transform="scale(0.015625)"/>
      <path id="DejaVuSans-Bold-50" d="M 588 4666 
L 2584 4666 
Q 3475 4666 3951 4270 
Q 4428 3875 4428 3144 
Q 4428 2409 3951 2014 
Q 3475 1619 2584 1619 
L 1791 1619 
L 1791 0 
L 588 0 
L 588 4666 
z
M 1791 3794 
L 1791 2491 
L 2456 2491 
Q 2806 2491 2997 2661 
Q 3188 2831 3188 3144 
Q 3188 3456 2997 3625 
Q 2806 3794 2456 3794 
L 1791 3794 
z
" transform="scale(0.015625)"/>
     </defs>
     <use xlink:href="#DejaVuSans-Bold-47"/>
     <use xlink:href="#DejaVuSans-Bold-33" transform="translate(82.080078 0)"/>
     <use xlink:href="#DejaVuSans-Bold-4d" transform="translate(151.660156 0)"/>
     <use xlink:href="#DejaVuSans-Bold-42" transform="translate(251.171875 0)"/>
     <use xlink:href="#DejaVuSans-Bold-2d" transform="translate(327.392578 0)"/>
     <use xlink:href="#DejaVuSans-Bold-32" transform="translate(368.896484 0)"/>
     <use xlink:href="#DejaVuSans-Bold-30" transform="translate(438.476562 0)"/>
     <use xlink:href="#DejaVuSans-Bold-32" transform="translate(508.056641 0)"/>
     <use xlink:href="#DejaVuSans-Bold-50" transform="translate(577.636719 0)"/>
    </g>
   </g>
   <g id="text_8">
    <!-- (CH1=ch8 · CH2=ch9) -->
    <g style="fill: #444444" transform="translate(557.384856 272.873536) scale(0.075 -0.075)">
     <defs>
      <path id="DejaVuSans-43" d="M 4122 4306 
L 4122 3641 
Q 3803 3938 3442 4084 
Q 3081 4231 2675 4231 
Q 1875 4231 1450 3742 
Q 1025 3253 1025 2328 
Q 1025 1406 1450 917 
Q 1875 428 2675 428 
Q 3081 428 3442 575 
Q 3803 722 4122 1019 
L 4122 359 
Q 3791 134 3420 21 
Q 3050 -91 2638 -91 
Q 1578 -91 968 557 
Q 359 1206 359 2328 
Q 359 3453 968 4101 
Q 1578 4750 2638 4750 
Q 3056 4750 3426 4639 
Q 3797 4528 4122 4306 
z
" transform="scale(0.015625)"/>
      <path id="DejaVuSans-48" d="M 628 4666 
L 1259 4666 
L 1259 2753 
L 3553 2753 
L 3553 4666 
L 4184 4666 
L 4184 0 
L 3553 0 
L 3553 2222 
L 1259 2222 
L 1259 0 
L 628 0 
L 628 4666 
z
" transform="scale(0.015625)"/>
      <path id="DejaVuSans-3d" d="M 678 2906 
L 4684 2906 
L 4684 2381 
L 678 2381 
L 678 2906 
z
M 678 1631 
L 4684 1631 
L 4684 1100 
L 678 1100 
L 678 1631 
z
" transform="scale(0.015625)"/>
      <path id="DejaVuSans-63" d="M 3122 3366 
L 3122 2828 
Q 2878 2963 2633 3030 
Q 2388 3097 2138 3097 
Q 1578 3097 1268 2742 
Q 959 2388 959 1747 
Q 959 1106 1268 751 
Q 1578 397 2138 397 
Q 2388 397 2633 464 
Q 2878 531 3122 666 
L 3122 134 
Q 2881 22 2623 -34 
Q 2366 -91 2075 -91 
Q 1284 -91 818 406 
Q 353 903 353 1747 
Q 353 2603 823 3093 
Q 1294 3584 2113 3584 
Q 2378 3584 2631 3529 
Q 2884 3475 3122 3366 
z
" transform="scale(0.015625)"/>
      <path id="DejaVuSans-68" d="M 3513 2113 
L 3513 0 
L 2938 0 
L 2938 2094 
Q 2938 2591 2744 2837 
Q 2550 3084 2163 3084 
Q 1697 3084 1428 2787 
Q 1159 2491 1159 1978 
L 1159 0 
L 581 0 
L 581 4863 
L 1159 4863 
L 1159 2956 
Q 1366 3272 1645 3428 
Q 1925 3584 2291 3584 
Q 2894 3584 3203 3211 
Q 3513 2838 3513 2113 
z
" transform="scale(0.015625)"/>
      <path id="DejaVuSans-20" transform="scale(0.015625)"/>
      <path id="DejaVuSans-b7" d="M 684 2619 
L 1344 2619 
L 1344 1825 
L 684 1825 
L 684 2619 
z
" transform="scale(0.015625)"/>
      <path id="DejaVuSans-39" d="M 703 97 
L 703 672 
Q 941 559 1184 500 
Q 1428 441 1663 441 
Q 2288 441 2617 861 
Q 2947 1281 2994 2138 
Q 2813 1869 2534 1725 
Q 2256 1581 1919 1581 
Q 1219 1581 811 2004 
Q 403 2428 403 3163 
Q 403 3881 828 4315 
Q 1253 4750 1959 4750 
Q 2769 4750 3195 4129 
Q 3622 3509 3622 2328 
Q 3622 1225 3098 567 
Q 2575 -91 1691 -91 
Q 1453 -91 1209 -44 
Q 966 3 703 97 
z
M 1959 2075 
Q 2384 2075 2632 2365 
Q 2881 2656 2881 3163 
Q 2881 3666 2632 3958 
Q 2384 4250 1959 4250 
Q 1534 4250 1286 3958 
Q 1038 3666 1038 3163 
Q 1038 2656 1286 2365 
Q 1534 2075 1959 2075 
z
" transform="scale(0.015625)"/>
     </defs>
     <use xlink:href="#DejaVuSans-28"/>
     <use xlink:href="#DejaVuSans-43" transform="translate(39.013672 0)"/>
     <use xlink:href="#DejaVuSans-48" transform="translate(108.837891 0)"/>
     <use xlink:href="#DejaVuSans-31" transform="translate(184.033203 0)"/>
     <use xlink:href="#DejaVuSans-3d" transform="translate(247.65625 0)"/>
     <use xlink:href="#DejaVuSans-63" transform="translate(331.445312 0)"/>
     <use xlink:href="#DejaVuSans-68" transform="translate(386.425781 0)"/>
     <use xlink:href="#DejaVuSans-38" transform="translate(449.804688 0)"/>
     <use xlink:href="#DejaVuSans-20" transform="translate(513.427734 0)"/>
     <use xlink:href="#DejaVuSans-b7" transform="translate(545.214844 0)"/>
     <use xlink:href="#DejaVuSans-20" transform="translate(577.001953 0)"/>
     <use xlink:href="#DejaVuSans-43" transform="translate(608.789062 0)"/>
     <use xlink:href="#DejaVuSans-48" transform="translate(678.613281 0)"/>
     <use xlink:href="#DejaVuSans-32" transform="translate(753.808594 0)"/>
     <use xlink:href="#DejaVuSans-3d" transform="translate(817.431641 0)"/>
     <use xlink:href="#DejaVuSans-63" transform="translate(901.220703 0)"/>
     <use xlink:href="#DejaVuSans-68" transform="translate(956.201172 0)"/>
     <use xlink:href="#DejaVuSans-39" transform="translate(1019.580078 0)"/>
     <use xlink:href="#DejaVuSans-29" transform="translate(1083.203125 0)"/>
    </g>
   </g>
   <g id="text_9">
    <!-- CH1 -->
    <g style="fill: #222222" transform="translate(536.820308 165.297474) scale(0.08 -0.08)">
     <use xlink:href="#DejaVuSans-43"/>
     <use xlink:href="#DejaVuSans-48" transform="translate(69.824219 0)"/>
     <use xlink:href="#DejaVuSans-31" transform="translate(145.019531 0)"/>
    </g>
   </g>
   <g id="text_10">
    <!-- CH2 -->
    <g style="fill: #222222" transform="translate(536.820308 211.626089) scale(0.08 -0.08)">
     <use xlink:href="#DejaVuSans-43"/>
     <use xlink:href="#DejaVuSans-48" transform="translate(69.824219 0)"/>
     <use xlink:href="#DejaVuSans-32" transform="translate(145.019531 0)"/>
    </g>
   </g>
   <g id="text_11">
    <!-- DC− -->
    <g style="fill: #222222" transform="translate(536.820308 304.28332) scale(0.08 -0.08)">
     <defs>
      <path id="DejaVuSans-2212" d="M 678 2272 
L 4684 2272 
L 4684 1741 
L 678 1741 
L 678 2272 
z
" transform="scale(0.015625)"/>
     </defs>
     <use xlink:href="#DejaVuSans-44"/>
     <use xlink:href="#DejaVuSans-43" transform="translate(77.001953 0)"/>
     <use xlink:href="#DejaVuSans-2212" transform="translate(146.826172 0)"/>
    </g>
   </g>
   <g id="text_12">
    <!-- Fotek SSR-25DA -->
    <g style="fill: #111111" transform="translate(558.629621 325.828303) scale(0.09 -0.09)">
     <defs>
      <path id="DejaVuSans-Bold-46" d="M 588 4666 
L 3834 4666 
L 3834 3756 
L 1791 3756 
L 1791 2888 
L 3713 2888 
L 3713 1978 
L 1791 1978 
L 1791 0 
L 588 0 
L 588 4666 
z
" transform="scale(0.015625)"/>
      <path id="DejaVuSans-Bold-74" d="M 1759 4494 
L 1759 3500 
L 2913 3500 
L 2913 2700 
L 1759 2700 
L 1759 1216 
Q 1759 972 1856 886 
Q 1953 800 2241 800 
L 2816 800 
L 2816 0 
L 1856 0 
Q 1194 0 917 276 
Q 641 553 641 1216 
L 641 2700 
L 84 2700 
L 84 3500 
L 641 3500 
L 641 4494 
L 1759 4494 
z
" transform="scale(0.015625)"/>
      <path id="DejaVuSans-Bold-65" d="M 4031 1759 
L 4031 1441 
L 1416 1441 
Q 1456 1047 1700 850 
Q 1944 653 2381 653 
Q 2734 653 3104 758 
Q 3475 863 3866 1075 
L 3866 213 
Q 3469 63 3072 -14 
Q 2675 -91 2278 -91 
Q 1328 -91 801 392 
Q 275 875 275 1747 
Q 275 2603 792 3093 
Q 1309 3584 2216 3584 
Q 3041 3584 3536 3087 
Q 4031 2591 4031 1759 
z
M 2881 2131 
Q 2881 2450 2695 2645 
Q 2509 2841 2209 2841 
Q 1884 2841 1681 2658 
Q 1478 2475 1428 2131 
L 2881 2131 
z
" transform="scale(0.015625)"/>
      <path id="DejaVuSans-Bold-6b" d="M 538 4863 
L 1656 4863 
L 1656 2216 
L 2944 3500 
L 4244 3500 
L 2534 1894 
L 4378 0 
L 3022 0 
L 1656 1459 
L 1656 0 
L 538 0 
L 538 4863 
z
" transform="scale(0.015625)"/>
      <path id="DejaVuSans-Bold-35" d="M 678 4666 
L 3669 4666 
L 3669 3781 
L 1638 3781 
L 1638 3059 
Q 1775 3097 1914 3117 
Q 2053 3138 2203 3138 
Q 3056 3138 3531 2711 
Q 4006 2284 4006 1522 
Q 4006 766 3489 337 
Q 2972 -91 2053 -91 
Q 1656 -91 1267 -14 
Q 878 63 494 219 
L 494 1166 
Q 875 947 1217 837 
Q 1559 728 1863 728 
Q 2300 728 2551 942 
Q 2803 1156 2803 1522 
Q 2803 1891 2551 2103 
Q 2300 2316 1863 2316 
Q 1603 2316 1309 2248 
Q 1016 2181 678 2041 
L 678 4666 
z
" transform="scale(0.015625)"/>
      <path id="DejaVuSans-Bold-44" d="M 1791 3756 
L 1791 909 
L 2222 909 
Q 2959 909 3348 1275 
Q 3738 1641 3738 2338 
Q 3738 3031 3350 3393 
Q 2963 3756 2222 3756 
L 1791 3756 
z
M 588 4666 
L 1856 4666 
Q 2919 4666 3439 4514 
Q 3959 4363 4331 4000 
Q 4659 3684 4818 3271 
Q 4978 2859 4978 2338 
Q 4978 1809 4818 1395 
Q 4659 981 4331 666 
Q 3956 303 3431 151 
Q 2906 0 1856 0 
L 588 0 
L 588 4666 
z
" transform="scale(0.015625)"/>
     </defs>
     <use xlink:href="#DejaVuSans-Bold-46"/>
     <use xlink:href="#DejaVuSans-Bold-6f" transform="translate(64.310547 0)"/>
     <use xlink:href="#DejaVuSans-Bold-74" transform="translate(133.011719 0)"/>
     <use xlink:href="#DejaVuSans-Bold-65" transform="translate(180.814453 0)"/>
     <use xlink:href="#DejaVuSans-Bold-6b" transform="translate(248.636719 0)"/>
     <use xlink:href="#DejaVuSans-Bold-20" transform="translate(315.140625 0)"/>
     <use xlink:href="#DejaVuSans-Bold-53" transform="translate(349.955078 0)"/>
     <use xlink:href="#DejaVuSans-Bold-53" transform="translate(417.476562 0)"/>
     <use xlink:href="#DejaVuSans-Bold-52" transform="translate(489.498047 0)"/>
     <use xlink:href="#DejaVuSans-Bold-2d" transform="translate(566.5 0)"/>
     <use xlink:href="#DejaVuSans-Bold-32" transform="translate(608.003906 0)"/>
     <use xlink:href="#DejaVuSans-Bold-35" transform="translate(677.583984 0)"/>
     <use xlink:href="#DejaVuSans-Bold-44" transform="translate(747.164062 0)"/>
     <use xlink:href="#DejaVuSans-Bold-41" transform="translate(830.171875 0)"/>
    </g>
   </g>
   <g id="text_13">
    <!-- (ch10) -->
    <g style="fill: #444444" transform="translate(587.332707 357.633843) scale(0.075 -0.075)">
     <use xlink:href="#DejaVuSans-28"/>
     <use xlink:href="#DejaVuSans-63" transform="translate(39.013672 0)"/>
     <use xlink:href="#DejaVuSans-68" transform="translate(93.994141 0)"/>
     <use xlink:href="#DejaVuSans-31" transform="translate(157.373047 0)"/>
     <use xlink:href="#DejaVuSans-30" transform="translate(220.996094 0)"/>
     <use xlink:href="#DejaVuSans-29" transform="translate(284.619141 0)"/>
    </g>
   </g>
   <g id="text_14">
    <!-- B3 (ctrl+) -->
    <g style="fill: #222222" transform="translate(536.820308 321.130089) scale(0.08 -0.08)">
     <defs>
      <path id="DejaVuSans-42" d="M 1259 2228 
L 1259 519 
L 2272 519 
Q 2781 519 3026 730 
Q 3272 941 3272 1375 
Q 3272 1813 3026 2020 
Q 2781 2228 2272 2228 
L 1259 2228 
z
M 1259 4147 
L 1259 2741 
L 2194 2741 
Q 2656 2741 2882 2914 
Q 3109 3088 3109 3444 
Q 3109 3797 2882 3972 
Q 2656 4147 2194 4147 
L 1259 4147 
z
M 628 4666 
L 2241 4666 
Q 2963 4666 3353 4366 
Q 3744 4066 3744 3513 
Q 3744 3084 3544 2831 
Q 3344 2578 2956 2516 
Q 3422 2416 3680 2098 
Q 3938 1781 3938 1306 
Q 3938 681 3513 340 
Q 3088 0 2303 0 
L 628 0 
L 628 4666 
z
" transform="scale(0.015625)"/>
      <path id="DejaVuSans-74" d="M 1172 4494 
L 1172 3500 
L 2356 3500 
L 2356 3053 
L 1172 3053 
L 1172 1153 
Q 1172 725 1289 603 
Q 1406 481 1766 481 
L 2356 481 
L 2356 0 
L 1766 0 
Q 1100 0 847 248 
Q 594 497 594 1153 
L 594 3053 
L 172 3053 
L 172 3500 
L 594 3500 
L 594 4494 
L 1172 4494 
z
" transform="scale(0.015625)"/>
      <path id="DejaVuSans-72" d="M 2631 2963 
Q 2534 3019 2420 3045 
Q 2306 3072 2169 3072 
Q 1681 3072 1420 2755 
Q 1159 2438 1159 1844 
L 1159 0 
L 581 0 
L 581 3500 
L 1159 3500 
L 1159 2956 
Q 1341 3275 1631 3429 
Q 1922 3584 2338 3584 
Q 2397 3584 2469 3576 
Q 2541 3569 2628 3553 
L 2631 2963 
z
" transform="scale(0.015625)"/>
      <path id="DejaVuSans-6c" d="M 603 4863 
L 1178 4863 
L 1178 0 
L 603 0 
L 603 4863 
z
" transform="scale(0.015625)"/>
      <path id="DejaVuSans-2b" d="M 2944 4013 
L 2944 2272 
L 4684 2272 
L 4684 1741 
L 2944 1741 
L 2944 0 
L 2419 0 
L 2419 1741 
L 678 1741 
L 678 2272 
L 2419 2272 
L 2419 4013 
L 2944 4013 
z
" transform="scale(0.015625)"/>
     </defs>
     <use xlink:href="#DejaVuSans-42"/>
     <use xlink:href="#DejaVuSans-33" transform="translate(68.603516 0)"/>
     <use xlink:href="#DejaVuSans-20" transform="translate(132.226562 0)"/>
     <use xlink:href="#DejaVuSans-28" transform="translate(164.013672 0)"/>
     <use xlink:href="#DejaVuSans-63" transform="translate(203.027344 0)"/>
     <use xlink:href="#DejaVuSans-74" transform="translate(258.007812 0)"/>
     <use xlink:href="#DejaVuSans-72" transform="translate(297.216797 0)"/>
     <use xlink:href="#DejaVuSans-6c" transform="translate(338.330078 0)"/>
     <use xlink:href="#DejaVuSans-2b" transform="translate(366.113281 0)"/>
     <use xlink:href="#DejaVuSans-29" transform="translate(449.902344 0)"/>
    </g>
   </g>
   <g id="text_15">
    <!-- B4 (GND) -->
    <g style="fill: #222222" transform="translate(536.820308 352.717781) scale(0.08 -0.08)">
     <defs>
      <path id="DejaVuSans-34" d="M 2419 4116 
L 825 1625 
L 2419 1625 
L 2419 4116 
z
M 2253 4666 
L 3047 4666 
L 3047 1625 
L 3713 1625 
L 3713 1100 
L 3047 1100 
L 3047 0 
L 2419 0 
L 2419 1100 
L 313 1100 
L 313 1709 
L 2253 4666 
z
" transform="scale(0.015625)"/>
     </defs>
     <use xlink:href="#DejaVuSans-42"/>
     <use xlink:href="#DejaVuSans-34" transform="translate(68.603516 0)"/>
     <use xlink:href="#DejaVuSans-20" transform="translate(132.226562 0)"/>
     <use xlink:href="#DejaVuSans-28" transform="translate(164.013672 0)"/>
     <use xlink:href="#DejaVuSans-47" transform="translate(203.027344 0)"/>
     <use xlink:href="#DejaVuSans-4e" transform="translate(280.517578 0)"/>
     <use xlink:href="#DejaVuSans-44" transform="translate(355.322266 0)"/>
     <use xlink:href="#DejaVuSans-29" transform="translate(432.324219 0)"/>
    </g>
   </g>
   <g id="patch_6">
    <path d="M 349.4 305.76105 
C 350.377335 305.76105 351.314772 305.372751 352.005852 304.681671 
C 352.696932 303.990591 353.085231 303.053154 353.085231 302.07582 
C 353.085231 301.098485 352.696932 300.161048 352.005852 299.469968 
C 351.314772 298.778888 350.377335 298.390589 349.4 298.390589 
C 348.422665 298.390589 347.485228 298.778888 346.794148 299.469968 
C 346.103068 300.161048 345.714769 301.098485 345.714769 302.07582 
C 345.714769 303.053154 346.103068 303.990591 346.794148 304.681671 
C 347.485228 305.372751 348.422665 305.76105 349.4 305.76105 
z
" clip-path="url(#pee2b83da7b)" style="fill: #1a1a1a; stroke: #1a1a1a; stroke-linejoin: miter"/>
   </g>
   <g id="text_16">
    <!-- Cable UTP Cat5e/6  (~2 m) -->
    <g style="fill: #555555" transform="translate(195.251683 67.71607) scale(0.08 -0.08)">
     <defs>
      <path id="DejaVuSans-Oblique-43" d="M 4447 4306 
L 4319 3641 
Q 4019 3944 3683 4091 
Q 3347 4238 2956 4238 
Q 2422 4238 2017 3981 
Q 1613 3725 1319 3200 
Q 1131 2863 1032 2486 
Q 934 2109 934 1728 
Q 934 1091 1264 756 
Q 1594 422 2222 422 
Q 2656 422 3056 561 
Q 3456 700 3834 978 
L 3688 231 
Q 3316 72 2936 -9 
Q 2556 -91 2175 -91 
Q 1278 -91 773 396 
Q 269 884 269 1753 
Q 269 2309 461 2846 
Q 653 3384 1013 3828 
Q 1394 4300 1883 4525 
Q 2372 4750 3022 4750 
Q 3422 4750 3780 4639 
Q 4138 4528 4447 4306 
z
" transform="scale(0.015625)"/>
      <path id="DejaVuSans-Oblique-61" d="M 3438 1997 
L 3047 0 
L 2472 0 
L 2578 531 
Q 2325 219 2001 64 
Q 1678 -91 1281 -91 
Q 834 -91 548 182 
Q 263 456 263 884 
Q 263 1497 752 1853 
Q 1241 2209 2100 2209 
L 2900 2209 
L 2931 2363 
Q 2938 2388 2941 2417 
Q 2944 2447 2944 2509 
Q 2944 2788 2717 2942 
Q 2491 3097 2081 3097 
Q 1800 3097 1504 3025 
Q 1209 2953 897 2809 
L 997 3341 
Q 1322 3463 1633 3523 
Q 1944 3584 2234 3584 
Q 2853 3584 3176 3315 
Q 3500 3047 3500 2534 
Q 3500 2431 3484 2292 
Q 3469 2153 3438 1997 
z
M 2816 1759 
L 2241 1759 
Q 1534 1759 1195 1570 
Q 856 1381 856 984 
Q 856 709 1029 553 
Q 1203 397 1509 397 
Q 1978 397 2328 733 
Q 2678 1069 2791 1631 
L 2816 1759 
z
" transform="scale(0.015625)"/>
      <path id="DejaVuSans-Oblique-62" d="M 3169 2138 
Q 3169 2591 2961 2847 
Q 2753 3103 2388 3103 
Q 2122 3103 1889 2973 
Q 1656 2844 1484 2597 
Q 1303 2338 1198 1995 
Q 1094 1653 1094 1313 
Q 1094 881 1298 636 
Q 1503 391 1863 391 
Q 2134 391 2365 517 
Q 2597 644 2772 891 
Q 2950 1147 3059 1487 
Q 3169 1828 3169 2138 
z
M 1381 2969 
Q 1594 3256 1914 3420 
Q 2234 3584 2584 3584 
Q 3122 3584 3439 3221 
Q 3756 2859 3756 2241 
Q 3756 1734 3570 1259 
Q 3384 784 3041 416 
Q 2816 172 2522 40 
Q 2228 -91 1906 -91 
Q 1566 -91 1316 65 
Q 1066 222 909 531 
L 806 0 
L 231 0 
L 1178 4863 
L 1753 4863 
L 1381 2969 
z
" transform="scale(0.015625)"/>
      <path id="DejaVuSans-Oblique-6c" d="M 1172 4863 
L 1747 4863 
L 800 0 
L 225 0 
L 1172 4863 
z
" transform="scale(0.015625)"/>
      <path id="DejaVuSans-Oblique-65" d="M 3078 2063 
Q 3088 2113 3092 2166 
Q 3097 2219 3097 2272 
Q 3097 2653 2873 2875 
Q 2650 3097 2266 3097 
Q 1838 3097 1509 2826 
Q 1181 2556 1013 2059 
L 3078 2063 
z
M 3578 1613 
L 903 1613 
Q 884 1494 878 1425 
Q 872 1356 872 1306 
Q 872 872 1139 634 
Q 1406 397 1894 397 
Q 2269 397 2603 481 
Q 2938 566 3225 728 
L 3116 159 
Q 2806 34 2476 -28 
Q 2147 -91 1806 -91 
Q 1078 -91 686 257 
Q 294 606 294 1247 
Q 294 1794 489 2264 
Q 684 2734 1063 3103 
Q 1306 3334 1642 3459 
Q 1978 3584 2356 3584 
Q 2950 3584 3301 3228 
Q 3653 2872 3653 2272 
Q 3653 2128 3634 1964 
Q 3616 1800 3578 1613 
z
" transform="scale(0.015625)"/>
      <path id="DejaVuSans-Oblique-20" transform="scale(0.015625)"/>
      <path id="DejaVuSans-Oblique-55" d="M 991 4666 
L 1625 4666 
L 1075 1831 
Q 1041 1641 1027 1517 
Q 1013 1394 1013 1300 
Q 1013 869 1253 645 
Q 1494 422 1959 422 
Q 2563 422 2898 753 
Q 3234 1084 3378 1831 
L 3928 4666 
L 4563 4666 
L 4000 1753 
Q 3816 809 3300 359 
Q 2784 -91 1888 -91 
Q 1188 -91 780 261 
Q 372 613 372 1216 
Q 372 1325 387 1461 
Q 403 1597 434 1753 
L 991 4666 
z
" transform="scale(0.015625)"/>
      <path id="DejaVuSans-Oblique-54" d="M 378 4666 
L 4325 4666 
L 4225 4134 
L 2559 4134 
L 1759 0 
L 1125 0 
L 1925 4134 
L 275 4134 
L 378 4666 
z
" transform="scale(0.015625)"/>
      <path id="DejaVuSans-Oblique-50" d="M 1081 4666 
L 2541 4666 
Q 3178 4666 3512 4369 
Q 3847 4072 3847 3500 
Q 3847 2731 3353 2303 
Q 2859 1875 1966 1875 
L 1172 1875 
L 806 0 
L 172 0 
L 1081 4666 
z
M 1613 4147 
L 1275 2394 
L 2069 2394 
Q 2606 2394 2893 2669 
Q 3181 2944 3181 3456 
Q 3181 3784 2986 3965 
Q 2791 4147 2438 4147 
L 1613 4147 
z
" transform="scale(0.015625)"/>
      <path id="DejaVuSans-Oblique-74" d="M 2706 3500 
L 2619 3053 
L 1472 3053 
L 1100 1153 
Q 1081 1047 1072 975 
Q 1063 903 1063 863 
Q 1063 663 1183 572 
Q 1303 481 1569 481 
L 2150 481 
L 2053 0 
L 1503 0 
Q 991 0 739 200 
Q 488 400 488 806 
Q 488 878 497 964 
Q 506 1050 525 1153 
L 897 3053 
L 409 3053 
L 500 3500 
L 978 3500 
L 1172 4494 
L 1747 4494 
L 1556 3500 
L 2706 3500 
z
" transform="scale(0.015625)"/>
      <path id="DejaVuSans-Oblique-35" d="M 3719 4666 
L 3622 4141 
L 1691 4141 
L 1466 2988 
Q 1609 3034 1757 3056 
Q 1906 3078 2059 3078 
Q 2706 3078 3081 2731 
Q 3456 2384 3456 1791 
Q 3456 1375 3264 994 
Q 3072 613 2719 325 
Q 2469 125 2108 17 
Q 1747 -91 1319 -91 
Q 1038 -91 744 -41 
Q 450 9 128 109 
L 244 697 
Q 531 556 820 486 
Q 1109 416 1403 416 
Q 2013 416 2411 781 
Q 2809 1147 2809 1697 
Q 2809 2103 2548 2328 
Q 2288 2553 1819 2553 
Q 1572 2553 1305 2495 
Q 1038 2438 756 2322 
L 1209 4666 
L 3719 4666 
z
" transform="scale(0.015625)"/>
      <path id="DejaVuSans-Oblique-2f" d="M 2175 4666 
L 2731 4666 
L 84 -594 
L -469 -594 
L 2175 4666 
z
" transform="scale(0.015625)"/>
      <path id="DejaVuSans-Oblique-36" d="M 2938 1728 
Q 2938 2125 2734 2354 
Q 2531 2584 2181 2584 
Q 1697 2584 1367 2211 
Q 1038 1838 1038 1288 
Q 1038 875 1239 642 
Q 1441 409 1797 409 
Q 2284 409 2611 792 
Q 2938 1175 2938 1728 
z
M 3788 4556 
L 3681 3981 
Q 3500 4100 3265 4162 
Q 3031 4225 2766 4225 
Q 2119 4225 1726 3819 
Q 1334 3413 1141 2547 
Q 1369 2813 1670 2948 
Q 1972 3084 2322 3084 
Q 2894 3084 3233 2754 
Q 3572 2425 3572 1869 
Q 3572 1413 3405 1020 
Q 3238 628 2919 331 
Q 2700 128 2409 18 
Q 2119 -91 1791 -91 
Q 1147 -91 775 318 
Q 403 728 403 1441 
Q 403 2103 573 2717 
Q 744 3331 1050 3781 
Q 1372 4256 1830 4503 
Q 2288 4750 2841 4750 
Q 3084 4750 3321 4701 
Q 3559 4653 3788 4556 
z
" transform="scale(0.015625)"/>
      <path id="DejaVuSans-Oblique-28" d="M 2731 4856 
Q 1903 3822 1495 2892 
Q 1088 1963 1088 1100 
Q 1088 606 1206 120 
Q 1325 -366 1563 -844 
L 1063 -844 
Q 775 -306 634 201 
Q 494 709 494 1197 
Q 494 2125 923 3036 
Q 1353 3947 2222 4856 
L 2731 4856 
z
" transform="scale(0.015625)"/>
      <path id="DejaVuSans-Oblique-7e" d="M 4684 2553 
L 4684 1997 
Q 4356 1750 4076 1644 
Q 3797 1538 3494 1538 
Q 3150 1538 2694 1722 
Q 2659 1734 2644 1741 
Q 2622 1750 2575 1766 
Q 2091 1959 1797 1959 
Q 1522 1959 1253 1839 
Q 984 1719 678 1459 
L 678 2016 
Q 1006 2263 1286 2370 
Q 1566 2478 1869 2478 
Q 2213 2478 2672 2291 
Q 2703 2278 2719 2272 
Q 2744 2263 2788 2247 
Q 3272 2053 3566 2053 
Q 3834 2053 4098 2172 
Q 4363 2291 4684 2553 
z
" transform="scale(0.015625)"/>
      <path id="DejaVuSans-Oblique-32" d="M 2950 2253 
L 934 525 
L 3163 525 
L 3053 0 
L 25 0 
L 128 531 
L 2234 2338 
Q 2656 2703 2832 2979 
Q 3009 3256 3009 3547 
Q 3009 3850 2796 4040 
Q 2584 4231 2241 4231 
Q 1944 4231 1581 4125 
Q 1219 4019 806 3816 
L 922 4441 
Q 1309 4594 1662 4672 
Q 2016 4750 2316 4750 
Q 2928 4750 3301 4425 
Q 3675 4100 3675 3572 
Q 3675 3216 3497 2892 
Q 3319 2569 2950 2253 
z
" transform="scale(0.015625)"/>
      <path id="DejaVuSans-Oblique-6d" d="M 5747 2113 
L 5338 0 
L 4763 0 
L 5166 2094 
Q 5191 2228 5203 2325 
Q 5216 2422 5216 2491 
Q 5216 2772 5059 2928 
Q 4903 3084 4622 3084 
Q 4203 3084 3875 2770 
Q 3547 2456 3450 1953 
L 3066 0 
L 2491 0 
L 2900 2094 
Q 2925 2209 2937 2307 
Q 2950 2406 2950 2484 
Q 2950 2769 2794 2926 
Q 2638 3084 2363 3084 
Q 1938 3084 1609 2770 
Q 1281 2456 1184 1953 
L 800 0 
L 225 0 
L 909 3500 
L 1484 3500 
L 1375 2956 
Q 1609 3263 1923 3423 
Q 2238 3584 2597 3584 
Q 2978 3584 3223 3384 
Q 3469 3184 3519 2828 
Q 3781 3197 4126 3390 
Q 4472 3584 4856 3584 
Q 5306 3584 5551 3325 
Q 5797 3066 5797 2591 
Q 5797 2488 5784 2364 
Q 5772 2241 5747 2113 
z
" transform="scale(0.015625)"/>
      <path id="DejaVuSans-Oblique-29" d="M -397 -844 
Q 434 191 840 1120 
Q 1247 2050 1247 2913 
Q 1247 3406 1130 3892 
Q 1013 4378 775 4856 
L 1275 4856 
Q 1563 4316 1703 3812 
Q 1844 3309 1844 2822 
Q 1844 1891 1411 973 
Q 978 56 116 -844 
L -397 -844 
z
" transform="scale(0.015625)"/>
     </defs>
     <use xlink:href="#DejaVuSans-Oblique-43"/>
     <use xlink:href="#DejaVuSans-Oblique-61" transform="translate(69.824219 0)"/>
     <use xlink:href="#DejaVuSans-Oblique-62" transform="translate(131.103516 0)"/>
     <use xlink:href="#DejaVuSans-Oblique-6c" transform="translate(194.580078 0)"/>
     <use xlink:href="#DejaVuSans-Oblique-65" transform="translate(222.363281 0)"/>
     <use xlink:href="#DejaVuSans-Oblique-20" transform="translate(283.886719 0)"/>
     <use xlink:href="#DejaVuSans-Oblique-55" transform="translate(315.673828 0)"/>
     <use xlink:href="#DejaVuSans-Oblique-54" transform="translate(388.867188 0)"/>
     <use xlink:href="#DejaVuSans-Oblique-50" transform="translate(449.951172 0)"/>
     <use xlink:href="#DejaVuSans-Oblique-20" transform="translate(510.253906 0)"/>
     <use xlink:href="#DejaVuSans-Oblique-43" transform="translate(542.041016 0)"/>
     <use xlink:href="#DejaVuSans-Oblique-61" transform="translate(611.865234 0)"/>
     <use xlink:href="#DejaVuSans-Oblique-74" transform="translate(673.144531 0)"/>
     <use xlink:href="#DejaVuSans-Oblique-35" transform="translate(712.353516 0)"/>
     <use xlink:href="#DejaVuSans-Oblique-65" transform="translate(775.976562 0)"/>
     <use xlink:href="#DejaVuSans-Oblique-2f" transform="translate(837.5 0)"/>
     <use xlink:href="#DejaVuSans-Oblique-36" transform="translate(871.191406 0)"/>
     <use xlink:href="#DejaVuSans-Oblique-20" transform="translate(934.814453 0)"/>
     <use xlink:href="#DejaVuSans-Oblique-20" transform="translate(966.601562 0)"/>
     <use xlink:href="#DejaVuSans-Oblique-28" transform="translate(998.388672 0)"/>
     <use xlink:href="#DejaVuSans-Oblique-7e" transform="translate(1037.402344 0)"/>
     <use xlink:href="#DejaVuSans-Oblique-32" transform="translate(1121.191406 0)"/>
     <use xlink:href="#DejaVuSans-Oblique-20" transform="translate(1184.814453 0)"/>
     <use xlink:href="#DejaVuSans-Oblique-6d" transform="translate(1216.601562 0)"/>
     <use xlink:href="#DejaVuSans-Oblique-29" transform="translate(1314.013672 0)"/>
    </g>
   </g>
   <g id="text_17">
    <!-- par naranja  D10 → CH1 -->
    <g style="fill: #333333" transform="translate(173.035385 165.021536) scale(0.07 -0.07)">
     <defs>
      <path id="DejaVuSans-70" d="M 1159 525 
L 1159 -1331 
L 581 -1331 
L 581 3500 
L 1159 3500 
L 1159 2969 
Q 1341 3281 1617 3432 
Q 1894 3584 2278 3584 
Q 2916 3584 3314 3078 
Q 3713 2572 3713 1747 
Q 3713 922 3314 415 
Q 2916 -91 2278 -91 
Q 1894 -91 1617 61 
Q 1341 213 1159 525 
z
M 3116 1747 
Q 3116 2381 2855 2742 
Q 2594 3103 2138 3103 
Q 1681 3103 1420 2742 
Q 1159 2381 1159 1747 
Q 1159 1113 1420 752 
Q 1681 391 2138 391 
Q 2594 391 2855 752 
Q 3116 1113 3116 1747 
z
" transform="scale(0.015625)"/>
      <path id="DejaVuSans-6e" d="M 3513 2113 
L 3513 0 
L 2938 0 
L 2938 2094 
Q 2938 2591 2744 2837 
Q 2550 3084 2163 3084 
Q 1697 3084 1428 2787 
Q 1159 2491 1159 1978 
L 1159 0 
L 581 0 
L 581 3500 
L 1159 3500 
L 1159 2956 
Q 1366 3272 1645 3428 
Q 1925 3584 2291 3584 
Q 2894 3584 3203 3211 
Q 3513 2838 3513 2113 
z
" transform="scale(0.015625)"/>
      <path id="DejaVuSans-6a" d="M 603 3500 
L 1178 3500 
L 1178 -63 
Q 1178 -731 923 -1031 
Q 669 -1331 103 -1331 
L -116 -1331 
L -116 -844 
L 38 -844 
Q 366 -844 484 -692 
Q 603 -541 603 -63 
L 603 3500 
z
M 603 4863 
L 1178 4863 
L 1178 4134 
L 603 4134 
L 603 4863 
z
" transform="scale(0.015625)"/>
      <path id="DejaVuSans-2192" d="M 5050 2147 
L 5050 1866 
L 3822 638 
L 3447 1013 
L 4175 1741 
L 366 1741 
L 366 2272 
L 4175 2272 
L 3447 3000 
L 3822 3375 
L 5050 2147 
z
" transform="scale(0.015625)"/>
     </defs>
     <use xlink:href="#DejaVuSans-70"/>
     <use xlink:href="#DejaVuSans-61" transform="translate(63.476562 0)"/>
     <use xlink:href="#DejaVuSans-72" transform="translate(124.755859 0)"/>
     <use xlink:href="#DejaVuSans-20" transform="translate(165.869141 0)"/>
     <use xlink:href="#DejaVuSans-6e" transform="translate(197.65625 0)"/>
     <use xlink:href="#DejaVuSans-61" transform="translate(261.035156 0)"/>
     <use xlink:href="#DejaVuSans-72" transform="translate(322.314453 0)"/>
     <use xlink:href="#DejaVuSans-61" transform="translate(363.427734 0)"/>
     <use xlink:href="#DejaVuSans-6e" transform="translate(424.707031 0)"/>
     <use xlink:href="#DejaVuSans-6a" transform="translate(488.085938 0)"/>
     <use xlink:href="#DejaVuSans-61" transform="translate(515.869141 0)"/>
     <use xlink:href="#DejaVuSans-20" transform="translate(577.148438 0)"/>
     <use xlink:href="#DejaVuSans-20" transform="translate(608.935547 0)"/>
     <use xlink:href="#DejaVuSans-44" transform="translate(640.722656 0)"/>
     <use xlink:href="#DejaVuSans-31" transform="translate(717.724609 0)"/>
     <use xlink:href="#DejaVuSans-30" transform="translate(781.347656 0)"/>
     <use xlink:href="#DejaVuSans-20" transform="translate(844.970703 0)"/>
     <use xlink:href="#DejaVuSans-2192" transform="translate(876.757812 0)"/>
     <use xlink:href="#DejaVuSans-20" transform="translate(960.546875 0)"/>
     <use xlink:href="#DejaVuSans-43" transform="translate(992.333984 0)"/>
     <use xlink:href="#DejaVuSans-48" transform="translate(1062.158203 0)"/>
     <use xlink:href="#DejaVuSans-31" transform="translate(1137.353516 0)"/>
    </g>
   </g>
   <g id="text_18">
    <!-- par verde    D11 → CH2 -->
    <g style="fill: #333333" transform="translate(173.035385 211.350151) scale(0.07 -0.07)">
     <defs>
      <path id="DejaVuSans-76" d="M 191 3500 
L 800 3500 
L 1894 563 
L 2988 3500 
L 3597 3500 
L 2284 0 
L 1503 0 
L 191 3500 
z
" transform="scale(0.015625)"/>
      <path id="DejaVuSans-64" d="M 2906 2969 
L 2906 4863 
L 3481 4863 
L 3481 0 
L 2906 0 
L 2906 525 
Q 2725 213 2448 61 
Q 2172 -91 1784 -91 
Q 1150 -91 751 415 
Q 353 922 353 1747 
Q 353 2572 751 3078 
Q 1150 3584 1784 3584 
Q 2172 3584 2448 3432 
Q 2725 3281 2906 2969 
z
M 947 1747 
Q 947 1113 1208 752 
Q 1469 391 1925 391 
Q 2381 391 2643 752 
Q 2906 1113 2906 1747 
Q 2906 2381 2643 2742 
Q 2381 3103 1925 3103 
Q 1469 3103 1208 2742 
Q 947 2381 947 1747 
z
" transform="scale(0.015625)"/>
     </defs>
     <use xlink:href="#DejaVuSans-70"/>
     <use xlink:href="#DejaVuSans-61" transform="translate(63.476562 0)"/>
     <use xlink:href="#DejaVuSans-72" transform="translate(124.755859 0)"/>
     <use xlink:href="#DejaVuSans-20" transform="translate(165.869141 0)"/>
     <use xlink:href="#DejaVuSans-76" transform="translate(197.65625 0)"/>
     <use xlink:href="#DejaVuSans-65" transform="translate(256.835938 0)"/>
     <use xlink:href="#DejaVuSans-72" transform="translate(318.359375 0)"/>
     <use xlink:href="#DejaVuSans-64" transform="translate(357.722656 0)"/>
     <use xlink:href="#DejaVuSans-65" transform="translate(421.199219 0)"/>
     <use xlink:href="#DejaVuSans-20" transform="translate(482.722656 0)"/>
     <use xlink:href="#DejaVuSans-20" transform="translate(514.509766 0)"/>
     <use xlink:href="#DejaVuSans-20" transform="translate(546.296875 0)"/>
     <use xlink:href="#DejaVuSans-20" transform="translate(578.083984 0)"/>
     <use xlink:href="#DejaVuSans-44" transform="translate(609.871094 0)"/>
     <use xlink:href="#DejaVuSans-31" transform="translate(686.873047 0)"/>
     <use xlink:href="#DejaVuSans-31" transform="translate(750.496094 0)"/>
     <use xlink:href="#DejaVuSans-20" transform="translate(814.119141 0)"/>
     <use xlink:href="#DejaVuSans-2192" transform="translate(845.90625 0)"/>
     <use xlink:href="#DejaVuSans-20" transform="translate(929.695312 0)"/>
     <use xlink:href="#DejaVuSans-43" transform="translate(961.482422 0)"/>
     <use xlink:href="#DejaVuSans-48" transform="translate(1031.306641 0)"/>
     <use xlink:href="#DejaVuSans-32" transform="translate(1106.501953 0)"/>
    </g>
   </g>
   <g id="text_19">
    <!-- par marrón   D12 → Fotek B3 -->
    <g style="fill: #333333" transform="translate(173.035385 257.818767) scale(0.07 -0.07)">
     <defs>
      <path id="DejaVuSans-f3" d="M 1959 3097 
Q 1497 3097 1228 2736 
Q 959 2375 959 1747 
Q 959 1119 1226 758 
Q 1494 397 1959 397 
Q 2419 397 2687 759 
Q 2956 1122 2956 1747 
Q 2956 2369 2687 2733 
Q 2419 3097 1959 3097 
z
M 1959 3584 
Q 2709 3584 3137 3096 
Q 3566 2609 3566 1747 
Q 3566 888 3137 398 
Q 2709 -91 1959 -91 
Q 1206 -91 779 398 
Q 353 888 353 1747 
Q 353 2609 779 3096 
Q 1206 3584 1959 3584 
z
M 2394 5119 
L 3016 5119 
L 1998 3944 
L 1519 3944 
L 2394 5119 
z
" transform="scale(0.015625)"/>
      <path id="DejaVuSans-46" d="M 628 4666 
L 3309 4666 
L 3309 4134 
L 1259 4134 
L 1259 2759 
L 3109 2759 
L 3109 2228 
L 1259 2228 
L 1259 0 
L 628 0 
L 628 4666 
z
" transform="scale(0.015625)"/>
      <path id="DejaVuSans-6f" d="M 1959 3097 
Q 1497 3097 1228 2736 
Q 959 2375 959 1747 
Q 959 1119 1226 758 
Q 1494 397 1959 397 
Q 2419 397 2687 759 
Q 2956 1122 2956 1747 
Q 2956 2369 2687 2733 
Q 2419 3097 1959 3097 
z
M 1959 3584 
Q 2709 3584 3137 3096 
Q 3566 2609 3566 1747 
Q 3566 888 3137 398 
Q 2709 -91 1959 -91 
Q 1206 -91 779 398 
Q 353 888 353 1747 
Q 353 2609 779 3096 
Q 1206 3584 1959 3584 
z
" transform="scale(0.015625)"/>
      <path id="DejaVuSans-6b" d="M 581 4863 
L 1159 4863 
L 1159 1991 
L 2875 3500 
L 3609 3500 
L 1753 1863 
L 3688 0 
L 2938 0 
L 1159 1709 
L 1159 0 
L 581 0 
L 581 4863 
z
" transform="scale(0.015625)"/>
     </defs>
     <use xlink:href="#DejaVuSans-70"/>
     <use xlink:href="#DejaVuSans-61" transform="translate(63.476562 0)"/>
     <use xlink:href="#DejaVuSans-72" transform="translate(124.755859 0)"/>
     <use xlink:href="#DejaVuSans-20" transform="translate(165.869141 0)"/>
     <use xlink:href="#DejaVuSans-6d" transform="translate(197.65625 0)"/>
     <use xlink:href="#DejaVuSans-61" transform="translate(295.068359 0)"/>
     <use xlink:href="#DejaVuSans-72" transform="translate(356.347656 0)"/>
     <use xlink:href="#DejaVuSans-72" transform="translate(395.710938 0)"/>
     <use xlink:href="#DejaVuSans-f3" transform="translate(434.574219 0)"/>
     <use xlink:href="#DejaVuSans-6e" transform="translate(495.755859 0)"/>
     <use xlink:href="#DejaVuSans-20" transform="translate(559.134766 0)"/>
     <use xlink:href="#DejaVuSans-20" transform="translate(590.921875 0)"/>
     <use xlink:href="#DejaVuSans-20" transform="translate(622.708984 0)"/>
     <use xlink:href="#DejaVuSans-44" transform="translate(654.496094 0)"/>
     <use xlink:href="#DejaVuSans-31" transform="translate(731.498047 0)"/>
     <use xlink:href="#DejaVuSans-32" transform="translate(795.121094 0)"/>
     <use xlink:href="#DejaVuSans-20" transform="translate(858.744141 0)"/>
     <use xlink:href="#DejaVuSans-2192" transform="translate(890.53125 0)"/>
     <use xlink:href="#DejaVuSans-20" transform="translate(974.320312 0)"/>
     <use xlink:href="#DejaVuSans-46" transform="translate(1006.107422 0)"/>
     <use xlink:href="#DejaVuSans-6f" transform="translate(1060.001953 0)"/>
     <use xlink:href="#DejaVuSans-74" transform="translate(1121.183594 0)"/>
     <use xlink:href="#DejaVuSans-65" transform="translate(1160.392578 0)"/>
     <use xlink:href="#DejaVuSans-6b" transform="translate(1221.916016 0)"/>
     <use xlink:href="#DejaVuSans-20" transform="translate(1279.826172 0)"/>
     <use xlink:href="#DejaVuSans-42" transform="translate(1311.613281 0)"/>
     <use xlink:href="#DejaVuSans-33" transform="translate(1380.216797 0)"/>
    </g>
   </g>
   <g id="text_20">
    <g id="patch_7">
     <path d="M 34.049538 382.465234 
L 482.864773 382.465234 
Q 485.114773 382.465234 485.114773 380.215234 
L 485.114773 364.198281 
Q 485.114773 361.948281 482.864773 361.948281 
L 34.049538 361.948281 
Q 31.799538 361.948281 31.799538 364.198281 
L 31.799538 380.215234 
Q 31.799538 382.465234 34.049538 382.465234 
z
" style="fill: #f0f0f0; stroke: #cccccc; stroke-width: 0.8; stroke-linejoin: miter"/>
    </g>
    <!-- ch8 (D10) y ch9 (D11) → activo-bajo (LOW=ON).   ch10 (D12, Fotek) → activo-alto (HIGH=ON). -->
    <g style="fill: #555555" transform="translate(34.049538 369.897109) scale(0.075 -0.075)">
     <defs>
      <path id="DejaVuSans-79" d="M 2059 -325 
Q 1816 -950 1584 -1140 
Q 1353 -1331 966 -1331 
L 506 -1331 
L 506 -850 
L 844 -850 
Q 1081 -850 1212 -737 
Q 1344 -625 1503 -206 
L 1606 56 
L 191 3500 
L 800 3500 
L 1894 763 
L 2988 3500 
L 3597 3500 
L 2059 -325 
z
" transform="scale(0.015625)"/>
      <path id="DejaVuSans-69" d="M 603 3500 
L 1178 3500 
L 1178 0 
L 603 0 
L 603 3500 
z
M 603 4863 
L 1178 4863 
L 1178 4134 
L 603 4134 
L 603 4863 
z
" transform="scale(0.015625)"/>
      <path id="DejaVuSans-2d" d="M 313 2009 
L 1997 2009 
L 1997 1497 
L 313 1497 
L 313 2009 
z
" transform="scale(0.015625)"/>
      <path id="DejaVuSans-62" d="M 3116 1747 
Q 3116 2381 2855 2742 
Q 2594 3103 2138 3103 
Q 1681 3103 1420 2742 
Q 1159 2381 1159 1747 
Q 1159 1113 1420 752 
Q 1681 391 2138 391 
Q 2594 391 2855 752 
Q 3116 1113 3116 1747 
z
M 1159 2969 
Q 1341 3281 1617 3432 
Q 1894 3584 2278 3584 
Q 2916 3584 3314 3078 
Q 3713 2572 3713 1747 
Q 3713 922 3314 415 
Q 2916 -91 2278 -91 
Q 1894 -91 1617 61 
Q 1341 213 1159 525 
L 1159 0 
L 581 0 
L 581 4863 
L 1159 4863 
L 1159 2969 
z
" transform="scale(0.015625)"/>
      <path id="DejaVuSans-4c" d="M 628 4666 
L 1259 4666 
L 1259 531 
L 3531 531 
L 3531 0 
L 628 0 
L 628 4666 
z
" transform="scale(0.015625)"/>
      <path id="DejaVuSans-4f" d="M 2522 4238 
Q 1834 4238 1429 3725 
Q 1025 3213 1025 2328 
Q 1025 1447 1429 934 
Q 1834 422 2522 422 
Q 3209 422 3611 934 
Q 4013 1447 4013 2328 
Q 4013 3213 3611 3725 
Q 3209 4238 2522 4238 
z
M 2522 4750 
Q 3503 4750 4090 4092 
Q 4678 3434 4678 2328 
Q 4678 1225 4090 567 
Q 3503 -91 2522 -91 
Q 1538 -91 948 565 
Q 359 1222 359 2328 
Q 359 3434 948 4092 
Q 1538 4750 2522 4750 
z
" transform="scale(0.015625)"/>
      <path id="DejaVuSans-57" d="M 213 4666 
L 850 4666 
L 1831 722 
L 2809 4666 
L 3519 4666 
L 4500 722 
L 5478 4666 
L 6119 4666 
L 4947 0 
L 4153 0 
L 3169 4050 
L 2175 0 
L 1381 0 
L 213 4666 
z
" transform="scale(0.015625)"/>
      <path id="DejaVuSans-2e" d="M 684 794 
L 1344 794 
L 1344 0 
L 684 0 
L 684 794 
z
" transform="scale(0.015625)"/>
      <path id="DejaVuSans-2c" d="M 750 794 
L 1409 794 
L 1409 256 
L 897 -744 
L 494 -744 
L 750 256 
L 750 794 
z
" transform="scale(0.015625)"/>
      <path id="DejaVuSans-49" d="M 628 4666 
L 1259 4666 
L 1259 0 
L 628 0 
L 628 4666 
z
" transform="scale(0.015625)"/>
     </defs>
     <use xlink:href="#DejaVuSans-63"/>
     <use xlink:href="#DejaVuSans-68" transform="translate(54.980469 0)"/>
     <use xlink:href="#DejaVuSans-38" transform="translate(118.359375 0)"/>
     <use xlink:href="#DejaVuSans-20" transform="translate(181.982422 0)"/>
     <use xlink:href="#DejaVuSans-28" transform="translate(213.769531 0)"/>
     <use xlink:href="#DejaVuSans-44" transform="translate(252.783203 0)"/>
     <use xlink:href="#DejaVuSans-31" transform="translate(329.785156 0)"/>
     <use xlink:href="#DejaVuSans-30" transform="translate(393.408203 0)"/>
     <use xlink:href="#DejaVuSans-29" transform="translate(457.03125 0)"/>
     <use xlink:href="#DejaVuSans-20" transform="translate(496.044922 0)"/>
     <use xlink:href="#DejaVuSans-79" transform="translate(527.832031 0)"/>
     <use xlink:href="#DejaVuSans-20" transform="translate(587.011719 0)"/>
     <use xlink:href="#DejaVuSans-63" transform="translate(618.798828 0)"/>
     <use xlink:href="#DejaVuSans-68" transform="translate(673.779297 0)"/>
     <use xlink:href="#DejaVuSans-39" transform="translate(737.158203 0)"/>
     <use xlink:href="#DejaVuSans-20" transform="translate(800.78125 0)"/>
     <use xlink:href="#DejaVuSans-28" transform="translate(832.568359 0)"/>
     <use xlink:href="#DejaVuSans-44" transform="translate(871.582031 0)"/>
     <use xlink:href="#DejaVuSans-31" transform="translate(948.583984 0)"/>
     <use xlink:href="#DejaVuSans-31" transform="translate(1012.207031 0)"/>
     <use xlink:href="#DejaVuSans-29" transform="translate(1075.830078 0)"/>
     <use xlink:href="#DejaVuSans-20" transform="translate(1114.84375 0)"/>
     <use xlink:href="#DejaVuSans-2192" transform="translate(1146.630859 0)"/>
     <use xlink:href="#DejaVuSans-20" transform="translate(1230.419922 0)"/>
     <use xlink:href="#DejaVuSans-61" transform="translate(1262.207031 0)"/>
     <use xlink:href="#DejaVuSans-63" transform="translate(1323.486328 0)"/>
     <use xlink:href="#DejaVuSans-74" transform="translate(1378.466797 0)"/>
     <use xlink:href="#DejaVuSans-69" transform="translate(1417.675781 0)"/>
     <use xlink:href="#DejaVuSans-76" transform="translate(1445.458984 0)"/>
     <use xlink:href="#DejaVuSans-6f" transform="translate(1504.638672 0)"/>
     <use xlink:href="#DejaVuSans-2d" transform="translate(1567.695312 0)"/>
     <use xlink:href="#DejaVuSans-62" transform="translate(1603.779297 0)"/>
     <use xlink:href="#DejaVuSans-61" transform="translate(1667.255859 0)"/>
     <use xlink:href="#DejaVuSans-6a" transform="translate(1728.535156 0)"/>
     <use xlink:href="#DejaVuSans-6f" transform="translate(1756.318359 0)"/>
     <use xlink:href="#DejaVuSans-20" transform="translate(1817.5 0)"/>
     <use xlink:href="#DejaVuSans-28" transform="translate(1849.287109 0)"/>
     <use xlink:href="#DejaVuSans-4c" transform="translate(1888.300781 0)"/>
     <use xlink:href="#DejaVuSans-4f" transform="translate(1940.388672 0)"/>
     <use xlink:href="#DejaVuSans-57" transform="translate(2019.099609 0)"/>
     <use xlink:href="#DejaVuSans-3d" transform="translate(2117.976562 0)"/>
     <use xlink:href="#DejaVuSans-4f" transform="translate(2201.765625 0)"/>
     <use xlink:href="#DejaVuSans-4e" transform="translate(2280.476562 0)"/>
     <use xlink:href="#DejaVuSans-29" transform="translate(2355.28125 0)"/>
     <use xlink:href="#DejaVuSans-2e" transform="translate(2394.294922 0)"/>
     <use xlink:href="#DejaVuSans-20" transform="translate(2426.082031 0)"/>
     <use xlink:href="#DejaVuSans-20" transform="translate(2457.869141 0)"/>
     <use xlink:href="#DejaVuSans-20" transform="translate(2489.65625 0)"/>
     <use xlink:href="#DejaVuSans-63" transform="translate(2521.443359 0)"/>
     <use xlink:href="#DejaVuSans-68" transform="translate(2576.423828 0)"/>
     <use xlink:href="#DejaVuSans-31" transform="translate(2639.802734 0)"/>
     <use xlink:href="#DejaVuSans-30" transform="translate(2703.425781 0)"/>
     <use xlink:href="#DejaVuSans-20" transform="translate(2767.048828 0)"/>
     <use xlink:href="#DejaVuSans-28" transform="translate(2798.835938 0)"/>
     <use xlink:href="#DejaVuSans-44" transform="translate(2837.849609 0)"/>
     <use xlink:href="#DejaVuSans-31" transform="translate(2914.851562 0)"/>
     <use xlink:href="#DejaVuSans-32" transform="translate(2978.474609 0)"/>
     <use xlink:href="#DejaVuSans-2c" transform="translate(3042.097656 0)"/>
     <use xlink:href="#DejaVuSans-20" transform="translate(3073.884766 0)"/>
     <use xlink:href="#DejaVuSans-46" transform="translate(3105.671875 0)"/>
     <use xlink:href="#DejaVuSans-6f" transform="translate(3159.566406 0)"/>
     <use xlink:href="#DejaVuSans-74" transform="translate(3220.748047 0)"/>
     <use xlink:href="#DejaVuSans-65" transform="translate(3259.957031 0)"/>
     <use xlink:href="#DejaVuSans-6b" transform="translate(3321.480469 0)"/>
     <use xlink:href="#DejaVuSans-29" transform="translate(3379.390625 0)"/>
     <use xlink:href="#DejaVuSans-20" transform="translate(3418.404297 0)"/>
     <use xlink:href="#DejaVuSans-2192" transform="translate(3450.191406 0)"/>
     <use xlink:href="#DejaVuSans-20" transform="translate(3533.980469 0)"/>
     <use xlink:href="#DejaVuSans-61" transform="translate(3565.767578 0)"/>
     <use xlink:href="#DejaVuSans-63" transform="translate(3627.046875 0)"/>
     <use xlink:href="#DejaVuSans-74" transform="translate(3682.027344 0)"/>
     <use xlink:href="#DejaVuSans-69" transform="translate(3721.236328 0)"/>
     <use xlink:href="#DejaVuSans-76" transform="translate(3749.019531 0)"/>
     <use xlink:href="#DejaVuSans-6f" transform="translate(3808.199219 0)"/>
     <use xlink:href="#DejaVuSans-2d" transform="translate(3871.255859 0)"/>
     <use xlink:href="#DejaVuSans-61" transform="translate(3907.339844 0)"/>
     <use xlink:href="#DejaVuSans-6c" transform="translate(3968.619141 0)"/>
     <use xlink:href="#DejaVuSans-74" transform="translate(3996.402344 0)"/>
     <use xlink:href="#DejaVuSans-6f" transform="translate(4035.611328 0)"/>
     <use xlink:href="#DejaVuSans-20" transform="translate(4096.792969 0)"/>
     <use xlink:href="#DejaVuSans-28" transform="translate(4128.580078 0)"/>
     <use xlink:href="#DejaVuSans-48" transform="translate(4167.59375 0)"/>
     <use xlink:href="#DejaVuSans-49" transform="translate(4242.789062 0)"/>
     <use xlink:href="#DejaVuSans-47" transform="translate(4272.28125 0)"/>
     <use xlink:href="#DejaVuSans-48" transform="translate(4349.771484 0)"/>
     <use xlink:href="#DejaVuSans-3d" transform="translate(4424.966797 0)"/>
     <use xlink:href="#DejaVuSans-4f" transform="translate(4508.755859 0)"/>
     <use xlink:href="#DejaVuSans-4e" transform="translate(4587.466797 0)"/>
     <use xlink:href="#DejaVuSans-29" transform="translate(4662.271484 0)"/>
     <use xlink:href="#DejaVuSans-2e" transform="translate(4701.285156 0)"/>
    </g>
    <!-- SSR 4ch CH3 y CH4: sin señal Arduino (no se muestran en este diagrama).  Alimentación 5 V del Nano: USB (host/hub). -->
    <g style="fill: #555555" transform="translate(34.049538 378.655469) scale(0.075 -0.075)">
     <defs>
      <path id="DejaVuSans-53" d="M 3425 4513 
L 3425 3897 
Q 3066 4069 2747 4153 
Q 2428 4238 2131 4238 
Q 1616 4238 1336 4038 
Q 1056 3838 1056 3469 
Q 1056 3159 1242 3001 
Q 1428 2844 1947 2747 
L 2328 2669 
Q 3034 2534 3370 2195 
Q 3706 1856 3706 1288 
Q 3706 609 3251 259 
Q 2797 -91 1919 -91 
Q 1588 -91 1214 -16 
Q 841 59 441 206 
L 441 856 
Q 825 641 1194 531 
Q 1563 422 1919 422 
Q 2459 422 2753 634 
Q 3047 847 3047 1241 
Q 3047 1584 2836 1778 
Q 2625 1972 2144 2069 
L 1759 2144 
Q 1053 2284 737 2584 
Q 422 2884 422 3419 
Q 422 4038 858 4394 
Q 1294 4750 2059 4750 
Q 2388 4750 2728 4690 
Q 3069 4631 3425 4513 
z
" transform="scale(0.015625)"/>
      <path id="DejaVuSans-52" d="M 2841 2188 
Q 3044 2119 3236 1894 
Q 3428 1669 3622 1275 
L 4263 0 
L 3584 0 
L 2988 1197 
Q 2756 1666 2539 1819 
Q 2322 1972 1947 1972 
L 1259 1972 
L 1259 0 
L 628 0 
L 628 4666 
L 2053 4666 
Q 2853 4666 3247 4331 
Q 3641 3997 3641 3322 
Q 3641 2881 3436 2590 
Q 3231 2300 2841 2188 
z
M 1259 4147 
L 1259 2491 
L 2053 2491 
Q 2509 2491 2742 2702 
Q 2975 2913 2975 3322 
Q 2975 3731 2742 3939 
Q 2509 4147 2053 4147 
L 1259 4147 
z
" transform="scale(0.015625)"/>
      <path id="DejaVuSans-3a" d="M 750 794 
L 1409 794 
L 1409 0 
L 750 0 
L 750 794 
z
M 750 3309 
L 1409 3309 
L 1409 2516 
L 750 2516 
L 750 3309 
z
" transform="scale(0.015625)"/>
      <path id="DejaVuSans-73" d="M 2834 3397 
L 2834 2853 
Q 2591 2978 2328 3040 
Q 2066 3103 1784 3103 
Q 1356 3103 1142 2972 
Q 928 2841 928 2578 
Q 928 2378 1081 2264 
Q 1234 2150 1697 2047 
L 1894 2003 
Q 2506 1872 2764 1633 
Q 3022 1394 3022 966 
Q 3022 478 2636 193 
Q 2250 -91 1575 -91 
Q 1294 -91 989 -36 
Q 684 19 347 128 
L 347 722 
Q 666 556 975 473 
Q 1284 391 1588 391 
Q 1994 391 2212 530 
Q 2431 669 2431 922 
Q 2431 1156 2273 1281 
Q 2116 1406 1581 1522 
L 1381 1569 
Q 847 1681 609 1914 
Q 372 2147 372 2553 
Q 372 3047 722 3315 
Q 1072 3584 1716 3584 
Q 2034 3584 2315 3537 
Q 2597 3491 2834 3397 
z
" transform="scale(0.015625)"/>
      <path id="DejaVuSans-f1" d="M 3513 2113 
L 3513 0 
L 2938 0 
L 2938 2094 
Q 2938 2591 2744 2837 
Q 2550 3084 2163 3084 
Q 1697 3084 1428 2787 
Q 1159 2491 1159 1978 
L 1159 0 
L 581 0 
L 581 3500 
L 1159 3500 
L 1159 2956 
Q 1366 3272 1645 3428 
Q 1925 3584 2291 3584 
Q 2894 3584 3203 3211 
Q 3513 2838 3513 2113 
z
M 2060 4281 
L 1881 4453 
Q 1813 4516 1761 4545 
Q 1710 4575 1669 4575 
Q 1550 4575 1494 4461 
Q 1438 4347 1431 4091 
L 1041 4091 
Q 1047 4513 1206 4742 
Q 1366 4972 1650 4972 
Q 1769 4972 1869 4928 
Q 1969 4884 2085 4781 
L 2263 4609 
Q 2331 4547 2383 4517 
Q 2435 4488 2475 4488 
Q 2594 4488 2650 4602 
Q 2706 4716 2713 4972 
L 3103 4972 
Q 3097 4550 2937 4320 
Q 2778 4091 2494 4091 
Q 2375 4091 2275 4134 
Q 2175 4178 2060 4281 
z
" transform="scale(0.015625)"/>
      <path id="DejaVuSans-75" d="M 544 1381 
L 544 3500 
L 1119 3500 
L 1119 1403 
Q 1119 906 1312 657 
Q 1506 409 1894 409 
Q 2359 409 2629 706 
Q 2900 1003 2900 1516 
L 2900 3500 
L 3475 3500 
L 3475 0 
L 2900 0 
L 2900 538 
Q 2691 219 2414 64 
Q 2138 -91 1772 -91 
Q 1169 -91 856 284 
Q 544 659 544 1381 
z
M 1991 3584 
L 1991 3584 
z
" transform="scale(0.015625)"/>
      <path id="DejaVuSans-35" d="M 691 4666 
L 3169 4666 
L 3169 4134 
L 1269 4134 
L 1269 2991 
Q 1406 3038 1543 3061 
Q 1681 3084 1819 3084 
Q 2600 3084 3056 2656 
Q 3513 2228 3513 1497 
Q 3513 744 3044 326 
Q 2575 -91 1722 -91 
Q 1428 -91 1123 -41 
Q 819 9 494 109 
L 494 744 
Q 775 591 1075 516 
Q 1375 441 1709 441 
Q 2250 441 2565 725 
Q 2881 1009 2881 1497 
Q 2881 1984 2565 2268 
Q 2250 2553 1709 2553 
Q 1456 2553 1204 2497 
Q 953 2441 691 2322 
L 691 4666 
z
" transform="scale(0.015625)"/>
      <path id="DejaVuSans-56" d="M 1831 0 
L 50 4666 
L 709 4666 
L 2188 738 
L 3669 4666 
L 4325 4666 
L 2547 0 
L 1831 0 
z
" transform="scale(0.015625)"/>
      <path id="DejaVuSans-55" d="M 556 4666 
L 1191 4666 
L 1191 1831 
Q 1191 1081 1462 751 
Q 1734 422 2344 422 
Q 2950 422 3222 751 
Q 3494 1081 3494 1831 
L 3494 4666 
L 4128 4666 
L 4128 1753 
Q 4128 841 3676 375 
Q 3225 -91 2344 -91 
Q 1459 -91 1007 375 
Q 556 841 556 1753 
L 556 4666 
z
" transform="scale(0.015625)"/>
      <path id="DejaVuSans-2f" d="M 1625 4666 
L 2156 4666 
L 531 -594 
L 0 -594 
L 1625 4666 
z
" transform="scale(0.015625)"/>
     </defs>
     <use xlink:href="#DejaVuSans-53"/>
     <use xlink:href="#DejaVuSans-53" transform="translate(63.476562 0)"/>
     <use xlink:href="#DejaVuSans-52" transform="translate(126.953125 0)"/>
     <use xlink:href="#DejaVuSans-20" transform="translate(196.435547 0)"/>
     <use xlink:href="#DejaVuSans-34" transform="translate(228.222656 0)"/>
     <use xlink:href="#DejaVuSans-63" transform="translate(291.845703 0)"/>
     <use xlink:href="#DejaVuSans-68" transform="translate(346.826172 0)"/>
     <use xlink:href="#DejaVuSans-20" transform="translate(410.205078 0)"/>
     <use xlink:href="#DejaVuSans-43" transform="translate(441.992188 0)"/>
     <use xlink:href="#DejaVuSans-48" transform="translate(511.816406 0)"/>
     <use xlink:href="#DejaVuSans-33" transform="translate(587.011719 0)"/>
     <use xlink:href="#DejaVuSans-20" transform="translate(650.634766 0)"/>
     <use xlink:href="#DejaVuSans-79" transform="translate(682.421875 0)"/>
     <use xlink:href="#DejaVuSans-20" transform="translate(741.601562 0)"/>
     <use xlink:href="#DejaVuSans-43" transform="translate(773.388672 0)"/>
     <use xlink:href="#DejaVuSans-48" transform="translate(843.212891 0)"/>
     <use xlink:href="#DejaVuSans-34" transform="translate(918.408203 0)"/>
     <use xlink:href="#DejaVuSans-3a" transform="translate(982.03125 0)"/>
     <use xlink:href="#DejaVuSans-20" transform="translate(1015.722656 0)"/>
     <use xlink:href="#DejaVuSans-73" transform="translate(1047.509766 0)"/>
     <use xlink:href="#DejaVuSans-69" transform="translate(1099.609375 0)"/>
     <use xlink:href="#DejaVuSans-6e" transform="translate(1127.392578 0)"/>
     <use xlink:href="#DejaVuSans-20" transform="translate(1190.771484 0)"/>
     <use xlink:href="#DejaVuSans-73" transform="translate(1222.558594 0)"/>
     <use xlink:href="#DejaVuSans-65" transform="translate(1274.658203 0)"/>
     <use xlink:href="#DejaVuSans-f1" transform="translate(1336.181641 0)"/>
     <use xlink:href="#DejaVuSans-61" transform="translate(1399.560547 0)"/>
     <use xlink:href="#DejaVuSans-6c" transform="translate(1460.839844 0)"/>
     <use xlink:href="#DejaVuSans-20" transform="translate(1488.623047 0)"/>
     <use xlink:href="#DejaVuSans-41" transform="translate(1520.410156 0)"/>
     <use xlink:href="#DejaVuSans-72" transform="translate(1588.818359 0)"/>
     <use xlink:href="#DejaVuSans-64" transform="translate(1628.181641 0)"/>
     <use xlink:href="#DejaVuSans-75" transform="translate(1691.658203 0)"/>
     <use xlink:href="#DejaVuSans-69" transform="translate(1755.037109 0)"/>
     <use xlink:href="#DejaVuSans-6e" transform="translate(1782.820312 0)"/>
     <use xlink:href="#DejaVuSans-6f" transform="translate(1846.199219 0)"/>
     <use xlink:href="#DejaVuSans-20" transform="translate(1907.380859 0)"/>
     <use xlink:href="#DejaVuSans-28" transform="translate(1939.167969 0)"/>
     <use xlink:href="#DejaVuSans-6e" transform="translate(1978.181641 0)"/>
     <use xlink:href="#DejaVuSans-6f" transform="translate(2041.560547 0)"/>
     <use xlink:href="#DejaVuSans-20" transform="translate(2102.742188 0)"/>
     <use xlink:href="#DejaVuSans-73" transform="translate(2134.529297 0)"/>
     <use xlink:href="#DejaVuSans-65" transform="translate(2186.628906 0)"/>
     <use xlink:href="#DejaVuSans-20" transform="translate(2248.152344 0)"/>
     <use xlink:href="#DejaVuSans-6d" transform="translate(2279.939453 0)"/>
     <use xlink:href="#DejaVuSans-75" transform="translate(2377.351562 0)"/>
     <use xlink:href="#DejaVuSans-65" transform="translate(2440.730469 0)"/>
     <use xlink:href="#DejaVuSans-73" transform="translate(2502.253906 0)"/>
     <use xlink:href="#DejaVuSans-74" transform="translate(2554.353516 0)"/>
     <use xlink:href="#DejaVuSans-72" transform="translate(2593.5625 0)"/>
     <use xlink:href="#DejaVuSans-61" transform="translate(2634.675781 0)"/>
     <use xlink:href="#DejaVuSans-6e" transform="translate(2695.955078 0)"/>
     <use xlink:href="#DejaVuSans-20" transform="translate(2759.333984 0)"/>
     <use xlink:href="#DejaVuSans-65" transform="translate(2791.121094 0)"/>
     <use xlink:href="#DejaVuSans-6e" transform="translate(2852.644531 0)"/>
     <use xlink:href="#DejaVuSans-20" transform="translate(2916.023438 0)"/>
     <use xlink:href="#DejaVuSans-65" transform="translate(2947.810547 0)"/>
     <use xlink:href="#DejaVuSans-73" transform="translate(3009.333984 0)"/>
     <use xlink:href="#DejaVuSans-74" transform="translate(3061.433594 0)"/>
     <use xlink:href="#DejaVuSans-65" transform="translate(3100.642578 0)"/>
     <use xlink:href="#DejaVuSans-20" transform="translate(3162.166016 0)"/>
     <use xlink:href="#DejaVuSans-64" transform="translate(3193.953125 0)"/>
     <use xlink:href="#DejaVuSans-69" transform="translate(3257.429688 0)"/>
     <use xlink:href="#DejaVuSans-61" transform="translate(3285.212891 0)"/>
     <use xlink:href="#DejaVuSans-67" transform="translate(3346.492188 0)"/>
     <use xlink:href="#DejaVuSans-72" transform="translate(3409.96875 0)"/>
     <use xlink:href="#DejaVuSans-61" transform="translate(3451.082031 0)"/>
     <use xlink:href="#DejaVuSans-6d" transform="translate(3512.361328 0)"/>
     <use xlink:href="#DejaVuSans-61" transform="translate(3609.773438 0)"/>
     <use xlink:href="#DejaVuSans-29" transform="translate(3671.052734 0)"/>
     <use xlink:href="#DejaVuSans-2e" transform="translate(3710.066406 0)"/>
     <use xlink:href="#DejaVuSans-20" transform="translate(3741.853516 0)"/>
     <use xlink:href="#DejaVuSans-20" transform="translate(3773.640625 0)"/>
     <use xlink:href="#DejaVuSans-41" transform="translate(3805.427734 0)"/>
     <use xlink:href="#DejaVuSans-6c" transform="translate(3873.835938 0)"/>
     <use xlink:href="#DejaVuSans-69" transform="translate(3901.619141 0)"/>
     <use xlink:href="#DejaVuSans-6d" transform="translate(3929.402344 0)"/>
     <use xlink:href="#DejaVuSans-65" transform="translate(4026.814453 0)"/>
     <use xlink:href="#DejaVuSans-6e" transform="translate(4088.337891 0)"/>
     <use xlink:href="#DejaVuSans-74" transform="translate(4151.716797 0)"/>
     <use xlink:href="#DejaVuSans-61" transform="translate(4190.925781 0)"/>
     <use xlink:href="#DejaVuSans-63" transform="translate(4252.205078 0)"/>
     <use xlink:href="#DejaVuSans-69" transform="translate(4307.185547 0)"/>
     <use xlink:href="#DejaVuSans-f3" transform="translate(4334.96875 0)"/>
     <use xlink:href="#DejaVuSans-6e" transform="translate(4396.150391 0)"/>
     <use xlink:href="#DejaVuSans-20" transform="translate(4459.529297 0)"/>
     <use xlink:href="#DejaVuSans-35" transform="translate(4491.316406 0)"/>
     <use xlink:href="#DejaVuSans-20" transform="translate(4554.939453 0)"/>
     <use xlink:href="#DejaVuSans-56" transform="translate(4586.726562 0)"/>
     <use xlink:href="#DejaVuSans-20" transform="translate(4655.134766 0)"/>
     <use xlink:href="#DejaVuSans-64" transform="translate(4686.921875 0)"/>
     <use xlink:href="#DejaVuSans-65" transform="translate(4750.398438 0)"/>
     <use xlink:href="#DejaVuSans-6c" transform="translate(4811.921875 0)"/>
     <use xlink:href="#DejaVuSans-20" transform="translate(4839.705078 0)"/>
     <use xlink:href="#DejaVuSans-4e" transform="translate(4871.492188 0)"/>
     <use xlink:href="#DejaVuSans-61" transform="translate(4946.296875 0)"/>
     <use xlink:href="#DejaVuSans-6e" transform="translate(5007.576172 0)"/>
     <use xlink:href="#DejaVuSans-6f" transform="translate(5070.955078 0)"/>
     <use xlink:href="#DejaVuSans-3a" transform="translate(5132.136719 0)"/>
     <use xlink:href="#DejaVuSans-20" transform="translate(5165.828125 0)"/>
     <use xlink:href="#DejaVuSans-55" transform="translate(5197.615234 0)"/>
     <use xlink:href="#DejaVuSans-53" transform="translate(5270.808594 0)"/>
     <use xlink:href="#DejaVuSans-42" transform="translate(5334.285156 0)"/>
     <use xlink:href="#DejaVuSans-20" transform="translate(5402.888672 0)"/>
     <use xlink:href="#DejaVuSans-28" transform="translate(5434.675781 0)"/>
     <use xlink:href="#DejaVuSans-68" transform="translate(5473.689453 0)"/>
     <use xlink:href="#DejaVuSans-6f" transform="translate(5537.068359 0)"/>
     <use xlink:href="#DejaVuSans-73" transform="translate(5598.25 0)"/>
     <use xlink:href="#DejaVuSans-74" transform="translate(5650.349609 0)"/>
     <use xlink:href="#DejaVuSans-2f" transform="translate(5689.558594 0)"/>
     <use xlink:href="#DejaVuSans-68" transform="translate(5723.25 0)"/>
     <use xlink:href="#DejaVuSans-75" transform="translate(5786.628906 0)"/>
     <use xlink:href="#DejaVuSans-62" transform="translate(5850.007812 0)"/>
     <use xlink:href="#DejaVuSans-29" transform="translate(5913.484375 0)"/>
     <use xlink:href="#DejaVuSans-2e" transform="translate(5952.498047 0)"/>
    </g>
   </g>
   <g id="text_21">
    <!-- Cableado de señal UTP — Caja de relés -->
    <g style="fill: #111111" transform="translate(242.152788 15.998281) scale(0.11 -0.11)">
     <defs>
      <path id="DejaVuSans-Bold-43" d="M 4288 256 
Q 3956 84 3597 -3 
Q 3238 -91 2847 -91 
Q 1681 -91 1000 561 
Q 319 1213 319 2328 
Q 319 3447 1000 4098 
Q 1681 4750 2847 4750 
Q 3238 4750 3597 4662 
Q 3956 4575 4288 4403 
L 4288 3438 
Q 3953 3666 3628 3772 
Q 3303 3878 2944 3878 
Q 2300 3878 1931 3465 
Q 1563 3053 1563 2328 
Q 1563 1606 1931 1193 
Q 2300 781 2944 781 
Q 3303 781 3628 887 
Q 3953 994 4288 1222 
L 4288 256 
z
" transform="scale(0.015625)"/>
      <path id="DejaVuSans-Bold-62" d="M 2400 722 
Q 2759 722 2948 984 
Q 3138 1247 3138 1747 
Q 3138 2247 2948 2509 
Q 2759 2772 2400 2772 
Q 2041 2772 1848 2508 
Q 1656 2244 1656 1747 
Q 1656 1250 1848 986 
Q 2041 722 2400 722 
z
M 1656 2988 
Q 1888 3294 2169 3439 
Q 2450 3584 2816 3584 
Q 3463 3584 3878 3070 
Q 4294 2556 4294 1747 
Q 4294 938 3878 423 
Q 3463 -91 2816 -91 
Q 2450 -91 2169 54 
Q 1888 200 1656 506 
L 1656 0 
L 538 0 
L 538 4863 
L 1656 4863 
L 1656 2988 
z
" transform="scale(0.015625)"/>
      <path id="DejaVuSans-Bold-6c" d="M 538 4863 
L 1656 4863 
L 1656 0 
L 538 0 
L 538 4863 
z
" transform="scale(0.015625)"/>
      <path id="DejaVuSans-Bold-73" d="M 3272 3391 
L 3272 2541 
Q 2913 2691 2578 2766 
Q 2244 2841 1947 2841 
Q 1628 2841 1473 2761 
Q 1319 2681 1319 2516 
Q 1319 2381 1436 2309 
Q 1553 2238 1856 2203 
L 2053 2175 
Q 2913 2066 3209 1816 
Q 3506 1566 3506 1031 
Q 3506 472 3093 190 
Q 2681 -91 1863 -91 
Q 1516 -91 1145 -36 
Q 775 19 384 128 
L 384 978 
Q 719 816 1070 734 
Q 1422 653 1784 653 
Q 2113 653 2278 743 
Q 2444 834 2444 1013 
Q 2444 1163 2330 1236 
Q 2216 1309 1875 1350 
L 1678 1375 
Q 931 1469 631 1722 
Q 331 1975 331 2491 
Q 331 3047 712 3315 
Q 1094 3584 1881 3584 
Q 2191 3584 2531 3537 
Q 2872 3491 3272 3391 
z
" transform="scale(0.015625)"/>
      <path id="DejaVuSans-Bold-f1" d="M 4056 2131 
L 4056 0 
L 2931 0 
L 2931 347 
L 2931 1631 
Q 2931 2084 2911 2256 
Q 2891 2428 2841 2509 
Q 2775 2619 2662 2680 
Q 2550 2741 2406 2741 
Q 2056 2741 1856 2470 
Q 1656 2200 1656 1722 
L 1656 0 
L 538 0 
L 538 3500 
L 1656 3500 
L 1656 2988 
Q 1909 3294 2193 3439 
Q 2478 3584 2822 3584 
Q 3428 3584 3742 3212 
Q 4056 2841 4056 2131 
z
M 2366 4263 
L 2194 4378 
Q 2182 4384 2163 4397 
Q 2016 4494 1938 4494 
Q 1826 4494 1766 4397 
Q 1707 4300 1707 4116 
L 1707 4091 
L 1273 4091 
Q 1273 4516 1433 4747 
Q 1594 4978 1885 4978 
Q 1998 4978 2112 4936 
Q 2226 4894 2354 4800 
L 2544 4666 
Q 2613 4619 2671 4594 
Q 2729 4569 2776 4569 
Q 2888 4569 2950 4669 
Q 3013 4769 3013 4947 
L 3013 4972 
L 3448 4972 
Q 3448 4547 3287 4315 
Q 3126 4084 2835 4084 
Q 2723 4084 2618 4121 
Q 2513 4159 2366 4263 
z
" transform="scale(0.015625)"/>
      <path id="DejaVuSans-Bold-55" d="M 588 4666 
L 1791 4666 
L 1791 1869 
Q 1791 1291 1980 1042 
Q 2169 794 2597 794 
Q 3028 794 3217 1042 
Q 3406 1291 3406 1869 
L 3406 4666 
L 4609 4666 
L 4609 1869 
Q 4609 878 4112 393 
Q 3616 -91 2597 -91 
Q 1581 -91 1084 393 
Q 588 878 588 1869 
L 588 4666 
z
" transform="scale(0.015625)"/>
      <path id="DejaVuSans-Bold-54" d="M 31 4666 
L 4331 4666 
L 4331 3756 
L 2784 3756 
L 2784 0 
L 1581 0 
L 1581 3756 
L 31 3756 
L 31 4666 
z
" transform="scale(0.015625)"/>
      <path id="DejaVuSans-Bold-2014" d="M 344 2156 
L 6056 2156 
L 6056 1350 
L 344 1350 
L 344 2156 
z
" transform="scale(0.015625)"/>
      <path id="DejaVuSans-Bold-6a" d="M 538 3500 
L 1656 3500 
L 1656 63 
Q 1656 -641 1318 -1011 
Q 981 -1381 341 -1381 
L -213 -1381 
L -213 -647 
L -19 -647 
Q 300 -647 419 -503 
Q 538 -359 538 63 
L 538 3500 
z
M 538 4863 
L 1656 4863 
L 1656 3950 
L 538 3950 
L 538 4863 
z
" transform="scale(0.015625)"/>
      <path id="DejaVuSans-Bold-e9" d="M 4031 1759 
L 4031 1441 
L 1416 1441 
Q 1456 1047 1700 850 
Q 1944 653 2381 653 
Q 2734 653 3104 758 
Q 3475 863 3866 1075 
L 3866 213 
Q 3469 63 3072 -14 
Q 2675 -91 2278 -91 
Q 1328 -91 801 392 
Q 275 875 275 1747 
Q 275 2603 792 3093 
Q 1309 3584 2216 3584 
Q 3041 3584 3536 3087 
Q 4031 2591 4031 1759 
z
M 2881 2131 
Q 2881 2450 2695 2645 
Q 2509 2841 2209 2841 
Q 1884 2841 1681 2658 
Q 1478 2475 1428 2131 
L 2881 2131 
z
M 2702 5119 
L 3586 5119 
L 2433 3944 
L 1821 3944 
L 2702 5119 
z
" transform="scale(0.015625)"/>
     </defs>
     <use xlink:href="#DejaVuSans-Bold-43"/>
     <use xlink:href="#DejaVuSans-Bold-61" transform="translate(73.388672 0)"/>
     <use xlink:href="#DejaVuSans-Bold-62" transform="translate(140.869141 0)"/>
     <use xlink:href="#DejaVuSans-Bold-6c" transform="translate(212.451172 0)"/>
     <use xlink:href="#DejaVuSans-Bold-65" transform="translate(246.728516 0)"/>
     <use xlink:href="#DejaVuSans-Bold-61" transform="translate(314.550781 0)"/>
     <use xlink:href="#DejaVuSans-Bold-64" transform="translate(382.03125 0)"/>
     <use xlink:href="#DejaVuSans-Bold-6f" transform="translate(453.613281 0)"/>
     <use xlink:href="#DejaVuSans-Bold-20" transform="translate(522.314453 0)"/>
     <use xlink:href="#DejaVuSans-Bold-64" transform="translate(557.128906 0)"/>
     <use xlink:href="#DejaVuSans-Bold-65" transform="translate(628.710938 0)"/>
     <use xlink:href="#DejaVuSans-Bold-20" transform="translate(696.533203 0)"/>
     <use xlink:href="#DejaVuSans-Bold-73" transform="translate(731.347656 0)"/>
     <use xlink:href="#DejaVuSans-Bold-65" transform="translate(790.869141 0)"/>
     <use xlink:href="#DejaVuSans-Bold-f1" transform="translate(858.691406 0)"/>
     <use xlink:href="#DejaVuSans-Bold-61" transform="translate(929.882812 0)"/>
     <use xlink:href="#DejaVuSans-Bold-6c" transform="translate(997.363281 0)"/>
     <use xlink:href="#DejaVuSans-Bold-20" transform="translate(1031.640625 0)"/>
     <use xlink:href="#DejaVuSans-Bold-55" transform="translate(1066.455078 0)"/>
     <use xlink:href="#DejaVuSans-Bold-54" transform="translate(1147.65625 0)"/>
     <use xlink:href="#DejaVuSans-Bold-50" transform="translate(1215.869141 0)"/>
     <use xlink:href="#DejaVuSans-Bold-20" transform="translate(1289.160156 0)"/>
     <use xlink:href="#DejaVuSans-Bold-2014" transform="translate(1323.974609 0)"/>
     <use xlink:href="#DejaVuSans-Bold-20" transform="translate(1423.974609 0)"/>
     <use xlink:href="#DejaVuSans-Bold-43" transform="translate(1458.789062 0)"/>
     <use xlink:href="#DejaVuSans-Bold-61" transform="translate(1532.177734 0)"/>
     <use xlink:href="#DejaVuSans-Bold-6a" transform="translate(1599.658203 0)"/>
     <use xlink:href="#DejaVuSans-Bold-61" transform="translate(1633.935547 0)"/>
     <use xlink:href="#DejaVuSans-Bold-20" transform="translate(1701.416016 0)"/>
     <use xlink:href="#DejaVuSans-Bold-64" transform="translate(1736.230469 0)"/>
     <use xlink:href="#DejaVuSans-Bold-65" transform="translate(1807.8125 0)"/>
     <use xlink:href="#DejaVuSans-Bold-20" transform="translate(1875.634766 0)"/>
     <use xlink:href="#DejaVuSans-Bold-72" transform="translate(1910.449219 0)"/>
     <use xlink:href="#DejaVuSans-Bold-65" transform="translate(1959.765625 0)"/>
     <use xlink:href="#DejaVuSans-Bold-6c" transform="translate(2027.587891 0)"/>
     <use xlink:href="#DejaVuSans-Bold-e9" transform="translate(2061.865234 0)"/>
     <use xlink:href="#DejaVuSans-Bold-73" transform="translate(2129.6875 0)"/>
    </g>
   </g>
   <g id="line2d_6">
    <defs>
     <path id="m5e34155158" d="M 0 2 
C 0.530406 2 1.03916 1.789267 1.414214 1.414214 
C 1.789267 1.03916 2 0.530406 2 0 
C 2 -0.530406 1.789267 -1.03916 1.414214 -1.414214 
C 1.03916 -1.789267 0.530406 -2 0 -2 
C -0.530406 -2 -1.03916 -1.789267 -1.414214 -1.414214 
C -1.789267 -1.03916 -2 -0.530406 -2 0 
C -2 0.530406 -1.789267 1.03916 -1.414214 1.414214 
C -1.03916 1.789267 -0.530406 2 0 2 
z
" style="stroke: #2980b9"/>
    </defs>
    <g clip-path="url(#pee2b83da7b)">
     <use xlink:href="#m5e34155158" x="149.344615" y="163.089974" style="fill: #2980b9; stroke: #2980b9"/>
    </g>
   </g>
   <g id="line2d_7">
    <g clip-path="url(#pee2b83da7b)">
     <use xlink:href="#m5e34155158" x="149.344615" y="209.418589" style="fill: #2980b9; stroke: #2980b9"/>
    </g>
   </g>
   <g id="line2d_8">
    <g clip-path="url(#pee2b83da7b)">
     <use xlink:href="#m5e34155158" x="149.344615" y="255.747204" style="fill: #2980b9; stroke: #2980b9"/>
    </g>
   </g>
   <g id="line2d_9">
    <g clip-path="url(#pee2b83da7b)">
     <use xlink:href="#m5e34155158" x="149.344615" y="302.07582" style="fill: #2980b9; stroke: #2980b9"/>
    </g>
   </g>
   <g id="line2d_10">
    <defs>
     <path id="mabfa871159" d="M 0 2 
C 0.530406 2 1.03916 1.789267 1.414214 1.414214 
C 1.789267 1.03916 2 0.530406 2 0 
C 2 -0.530406 1.789267 -1.03916 1.414214 -1.414214 
C 1.03916 -1.789267 0.530406 -2 0 -2 
C -0.530406 -2 -1.03916 -1.789267 -1.414214 -1.414214 
C -1.789267 -1.03916 -2 -0.530406 -2 0 
C -2 0.530406 -1.789267 1.03916 -1.414214 1.414214 
C -1.03916 1.789267 -0.530406 2 0 2 
z
" style="stroke: #e67e22"/>
    </defs>
    <g clip-path="url(#pee2b83da7b)">
     <use xlink:href="#mabfa871159" x="533.661538" y="163.089974" style="fill: #e67e22; stroke: #e67e22"/>
    </g>
   </g>
   <g id="line2d_11">
    <g clip-path="url(#pee2b83da7b)">
     <use xlink:href="#mabfa871159" x="533.661538" y="209.418589" style="fill: #e67e22; stroke: #e67e22"/>
    </g>
   </g>
   <g id="line2d_12">
    <g clip-path="url(#pee2b83da7b)">
     <use xlink:href="#mabfa871159" x="533.661538" y="302.07582" style="fill: #e67e22; stroke: #e67e22"/>
    </g>
   </g>
   <g id="line2d_13">
    <defs>
     <path id="mb32dfbc0a8" d="M 0 2 
C 0.530406 2 1.03916 1.789267 1.414214 1.414214 
C 1.789267 1.03916 2 0.530406 2 0 
C 2 -0.530406 1.789267 -1.03916 1.414214 -1.414214 
C 1.03916 -1.789267 0.530406 -2 0 -2 
C -0.530406 -2 -1.03916 -1.789267 -1.414214 -1.414214 
C -1.789267 -1.03916 -2 -0.530406 -2 0 
C -2 0.530406 -1.789267 1.03916 -1.414214 1.414214 
C -1.03916 1.789267 -0.530406 2 0 2 
z
" style="stroke: #8e44ad"/>
    </defs>
    <g clip-path="url(#pee2b83da7b)">
     <use xlink:href="#mb32dfbc0a8" x="533.661538" y="318.922589" style="fill: #8e44ad; stroke: #8e44ad"/>
    </g>
   </g>
   <g id="line2d_14">
    <g clip-path="url(#pee2b83da7b)">
     <use xlink:href="#mb32dfbc0a8" x="533.661538" y="350.510281" style="fill: #8e44ad; stroke: #8e44ad"/>
    </g>
   </g>
   <g id="line2d_15">
    <defs>
     <path id="mf899c7ed7e" d="M -2.5 2.5 
L 2.5 2.5 
L 2.5 -2.5 
L -2.5 -2.5 
z
" style="stroke: #e67428; stroke-linejoin: miter"/>
    </defs>
    <g clip-path="url(#pee2b83da7b)">
     <use xlink:href="#mf899c7ed7e" x="165.138462" y="163.089974" style="fill: #e67428; stroke: #e67428; stroke-linejoin: miter"/>
    </g>
   </g>
   <g id="line2d_16">
    <defs>
     <path id="m5db1ede761" d="M -2.5 2.5 
L 2.5 2.5 
L 2.5 -2.5 
L -2.5 -2.5 
z
" style="stroke: #27ae60; stroke-linejoin: miter"/>
    </defs>
    <g clip-path="url(#pee2b83da7b)">
     <use xlink:href="#m5db1ede761" x="165.138462" y="209.418589" style="fill: #27ae60; stroke: #27ae60; stroke-linejoin: miter"/>
    </g>
   </g>
   <g id="line2d_17">
    <defs>
     <path id="macb3174c4b" d="M -2.5 2.5 
L 2.5 2.5 
L 2.5 -2.5 
L -2.5 -2.5 
z
" style="stroke: #7d4c17; stroke-linejoin: miter"/>
    </defs>
    <g clip-path="url(#pee2b83da7b)">
     <use xlink:href="#macb3174c4b" x="165.138462" y="255.747204" style="fill: #7d4c17; stroke: #7d4c17; stroke-linejoin: miter"/>
    </g>
   </g>
  </g>
 </g>
 <defs>
  <clipPath id="pee2b83da7b">
   <rect x="7.2" y="21.998281" width="710.723077" height="410.64"/>
  </clipPath>
 </defs>
</svg>
